GrahamSans-Bold.ufo
<glyph name="exclam" format="2">
  <advance width="280"/>
  <unicode hex="0021"/>
  <outline>
    <contour>
      <point x="65" y="0" type="line"/>
      <point x="215" y="0" type="line"/>
      <point x="215" y="140" type="line"/>
      <point x="65" y="140" type="line"/>
    </contour>
    <contour>
      <point x="115" y="210" type="line"/>
      <point x="165" y="210" type="line"/>
      <point x="215" y="480" type="line"/>
      <point x="215" y="720" type="line"/>
      <point x="65" y="720" type="line"/>
      <point x="65" y="480" type="line"/>
    </contour>
  </outline>
</glyph>
<glyph name="quotedbl" format="2">
  <advance width="430"/>
  <unicode hex="0022"/>
  <outline>
    <contour>
      <point x="55" y="750" type="line"/>
      <point x="55" y="590" type="line"/>
      <point x="110" y="475" type="line"/>
      <point x="120" y="475" type="line"/>
      <point x="175" y="590" type="line"/>
      <point x="175" y="750" type="line"/>
    </contour>
    <contour>
      <point x="255" y="750" type="line"/>
      <point x="255" y="590" type="line"/>
      <point x="310" y="475" type="line"/>
      <point x="320" y="475" type="line"/>
      <point x="375" y="590" type="line"/>
      <point x="375" y="750" type="line"/>
    </contour>
  </outline>
</glyph>
<glyph name="numbersign" format="2">
  <advance width="620"/>
  <unicode hex="0023"/>
  <outline>
    <contour>
      <point x="106" y="50" type="line"/>
      <point x="196" y="50" type="line"/>
      <point x="217" y="170" type="line"/>
      <point x="347" y="170" type="line"/>
      <point x="326" y="50" type="line"/>
      <point x="406" y="50" type="line"/>
      <point x="427" y="170" type="line"/>
      <point x="517" y="170" type="line"/>
      <point x="531" y="250" type="line"/>
      <point x="441" y="250" type="line"/>
      <point x="468" y="400" type="line"/>
      <point x="558" y="400" type="line"/>
      <point x="572" y="480" type="line"/>
      <point x="482" y="480" type="line"/>
      <point x="503" y="600" type="line"/>
      <point x="423" y="600" type="line"/>
      <point x="402" y="480" type="line"/>
      <point x="272" y="480" type="line"/>
      <point x="293" y="600" type="line"/>
      <point x="203" y="600" type="line"/>
      <point x="182" y="480" type="line"/>
      <point x="92" y="480" type="line"/>
      <point x="78" y="400" type="line"/>
      <point x="168" y="400" type="line"/>
      <point x="141" y="250" type="line"/>
      <point x="51" y="250" type="line"/>
      <point x="37" y="170" type="line"/>
      <point x="127" y="170" type="line"/>
    </contour>
    <contour>
      <point x="231" y="250" type="line"/>
      <point x="258" y="400" type="line"/>
      <point x="388" y="400" type="line"/>
      <point x="361" y="250" type="line"/>
    </contour>
  </outline>
</glyph>
<glyph name="dollar" format="2">
  <advance width="620"/>
  <unicode hex="0024"/>
  <outline>
    <contour>
      <point x="236" y="-120" type="line"/>
      <point x="380" y="-120" type="line"/>
      <point x="371" y="-4" type="line"/>
      <point x="496" y="16"/>
      <point x="579" y="100"/>
      <point x="579" y="212" type="curve" smooth="yes"/>
      <point x="579" y="373"/>
      <point x="436" y="412"/>
      <point x="338" y="433" type="curve" smooth="yes"/>
      <point x="234" y="455"/>
      <point x="195" y="478"/>
      <point x="195" y="533" type="curve" smooth="yes"/>
      <point x="195" y="571"/>
      <point x="234" y="614"/>
      <point x="307" y="614" type="curve" smooth="yes"/>
      <point x="379" y="614"/>
      <point x="416" y="583"/>
      <point x="443" y="540" type="curve"/>
      <point x="555" y="594" type="line"/>
      <point x="540" y="644"/>
      <point x="477" y="707"/>
      <point x="371" y="725" type="curve"/>
      <point x="380" y="840" type="line"/>
      <point x="236" y="840" type="line"/>
      <point x="245" y="724" type="line"/>
      <point x="135" y="704"/>
      <point x="59" y="630"/>
      <point x="59" y="525" type="curve" smooth="yes"/>
      <point x="59" y="384"/>
      <point x="159" y="336"/>
      <point x="287" y="310" type="curve" smooth="yes"/>
      <point x="407" y="286"/>
      <point x="440" y="261"/>
      <point x="440" y="201" type="curve" smooth="yes"/>
      <point x="440" y="153"/>
      <point x="383" y="106"/>
      <point x="311" y="106" type="curve" smooth="yes"/>
      <point x="250" y="106"/>
      <point x="166" y="132"/>
      <point x="138" y="206" type="curve"/>
      <point x="30" y="147" type="line"/>
      <point x="62" y="74"/>
      <point x="139" y="12"/>
      <point x="245" y="-5" type="curve"/>
    </contour>
  </outline>
</glyph>
<glyph name="ampersand" format="2">
  <advance width="660"/>
  <unicode hex="0026"/>
  <outline>
    <contour>
      <point x="308" y="730" type="curve" smooth="yes"/>
      <point x="193" y="730"/>
      <point x="100" y="660"/>
      <point x="100" y="533" type="curve" smooth="yes"/>
      <point x="100" y="446"/>
      <point x="168" y="396"/>
      <point x="203" y="392" type="curve"/>
      <point x="136" y="385"/>
      <point x="35" y="317"/>
      <point x="35" y="206" type="curve" smooth="yes"/>
      <point x="35" y="91"/>
      <point x="116" y="-10"/>
      <point x="260" y="-10" type="curve" smooth="yes"/>
      <point x="338" y="-10"/>
      <point x="407" y="27"/>
      <point x="443" y="82" type="curve"/>
      <point x="469" y="32"/>
      <point x="540" y="-4"/>
      <point x="587" y="-10" type="curve"/>
      <point x="630" y="95" type="line"/>
      <point x="630" y="95"/>
      <point x="524" y="110"/>
      <point x="524" y="192" type="curve" smooth="yes"/>
      <point x="524" y="326" type="line"/>
      <point x="620" y="326" type="line"/>
      <point x="620" y="437" type="line"/>
      <point x="467" y="437" type="line"/>
      <point x="486" y="456"/>
      <point x="516" y="490"/>
      <point x="516" y="547" type="curve" smooth="yes"/>
      <point x="516" y="653"/>
      <point x="433" y="730"/>
    </contour>
    <contour>
      <point x="308" y="624" type="curve" smooth="yes"/>
      <point x="371" y="624"/>
      <point x="401" y="581"/>
      <point x="401" y="533" type="curve" smooth="yes"/>
      <point x="401" y="485"/>
      <point x="371" y="442"/>
      <point x="308" y="442" type="curve" smooth="yes"/>
      <point x="246" y="442"/>
      <point x="215" y="485"/>
      <point x="215" y="533" type="curve" smooth="yes"/>
      <point x="215" y="581"/>
      <point x="246" y="624"/>
    </contour>
    <contour>
      <point x="285" y="326" type="curve" smooth="yes"/>
      <point x="400" y="326" type="line"/>
      <point x="400" y="211" type="line" smooth="yes"/>
      <point x="400" y="163"/>
      <point x="347" y="106"/>
      <point x="280" y="106" type="curve" smooth="yes"/>
      <point x="203" y="106"/>
      <point x="170" y="158"/>
      <point x="170" y="216" type="curve" smooth="yes"/>
      <point x="170" y="283"/>
      <point x="223" y="326"/>
    </contour>
  </outline>
</glyph>
<glyph name="quotesingle" format="2">
  <advance width="210"/>
  <unicode hex="0027"/>
  <outline>
    <contour>
      <point x="100" y="470" type="line"/>
      <point x="110" y="470" type="line"/>
      <point x="165" y="590" type="line"/>
      <point x="165" y="750" type="line"/>
      <point x="45" y="750" type="line"/>
      <point x="45" y="590" type="line"/>
    </contour>
  </outline>
</glyph>
<glyph name="parenleft" format="2">
  <advance width="310"/>
  <unicode hex="0028"/>
  <outline>
    <contour>
      <point x="205" y="-100" type="curve"/>
      <point x="285" y="-70" type="line"/>
      <point x="205" y="40"/>
      <point x="155" y="215"/>
      <point x="155" y="340" type="curve" smooth="yes"/>
      <point x="155" y="465"/>
      <point x="205" y="640"/>
      <point x="285" y="750" type="curve"/>
      <point x="205" y="780" type="line"/>
      <point x="135" y="700"/>
      <point x="45" y="525"/>
      <point x="45" y="340" type="curve" smooth="yes"/>
      <point x="45" y="155"/>
      <point x="135" y="-20"/>
    </contour>
  </outline>
</glyph>
<glyph name="parenright" format="2">
  <advance width="310"/>
  <unicode hex="0029"/>
  <outline>
    <contour>
      <point x="105" y="-100" type="line"/>
      <point x="175" y="-20"/>
      <point x="265" y="155"/>
      <point x="265" y="340" type="curve" smooth="yes"/>
      <point x="265" y="525"/>
      <point x="175" y="700"/>
      <point x="105" y="780" type="curve"/>
      <point x="25" y="750" type="line"/>
      <point x="105" y="640"/>
      <point x="155" y="465"/>
      <point x="155" y="340" type="curve" smooth="yes"/>
      <point x="155" y="215"/>
      <point x="105" y="40"/>
      <point x="25" y="-70" type="curve"/>
    </contour>
  </outline>
</glyph>
<glyph name="asterisk" format="2">
  <advance width="430"/>
  <unicode hex="002A"/>
  <outline>
    <contour>
      <point x="66" y="418" type="line"/>
      <point x="164" y="347" type="line"/>
      <point x="214" y="452" type="line"/>
      <point x="266" y="347" type="line"/>
      <point x="364" y="418" type="line"/>
      <point x="278" y="499" type="line"/>
      <point x="395" y="515" type="line"/>
      <point x="358" y="630" type="line"/>
      <point x="254" y="573" type="line"/>
      <point x="275" y="690" type="line"/>
      <point x="155" y="690" type="line"/>
      <point x="176" y="574" type="line"/>
      <point x="72" y="630" type="line"/>
      <point x="35" y="515" type="line"/>
      <point x="151" y="500" type="line"/>
    </contour>
  </outline>
</glyph>
<glyph name="plus" format="2">
  <advance width="470"/>
  <unicode hex="002B"/>
  <outline>
    <contour>
      <point x="185" y="110" type="line"/>
      <point x="285" y="110" type="line"/>
      <point x="285" y="260" type="line"/>
      <point x="435" y="260" type="line"/>
      <point x="435" y="360" type="line"/>
      <point x="285" y="360" type="line"/>
      <point x="285" y="510" type="line"/>
      <point x="185" y="510" type="line"/>
      <point x="185" y="360" type="line"/>
      <point x="35" y="360" type="line"/>
      <point x="35" y="260" type="line"/>
      <point x="185" y="260" type="line"/>
    </contour>
  </outline>
</glyph>
<glyph name="comma" format="2">
  <advance width="220"/>
  <unicode hex="002C"/>
  <outline>
    <contour>
      <point x="37" y="-144" type="line"/>
      <point x="47" y="-144" type="line"/>
      <point x="165" y="-50" type="line"/>
      <point x="185" y="140" type="line"/>
      <point x="45" y="140" type="line"/>
      <point x="45" y="-2" type="line"/>
      <point x="85" y="-24" type="line"/>
    </contour>
  </outline>
</glyph>
<glyph name="hyphen" format="2">
  <advance width="420"/>
  <unicode hex="002D"/>
  <outline>
    <contour>
      <point x="55" y="270" type="line"/>
      <point x="365" y="270" type="line"/>
      <point x="365" y="360" type="line"/>
      <point x="55" y="360" type="line"/>
    </contour>
  </outline>
</glyph>
<glyph name="period" format="2">
  <advance width="250"/>
  <unicode hex="002E"/>
  <outline>
    <contour>
      <point x="55" y="0" type="line"/>
      <point x="195" y="0" type="line"/>
      <point x="195" y="140" type="line"/>
      <point x="55" y="140" type="line"/>
    </contour>
  </outline>
</glyph>
<glyph name="slash" format="2">
  <advance width="420"/>
  <unicode hex="002F"/>
  <outline>
    <contour>
      <point x="5" y="-70" type="line"/>
      <point x="105" y="-70" type="line"/>
      <point x="415" y="750" type="line"/>
      <point x="315" y="750" type="line"/>
    </contour>
  </outline>
</glyph>
<glyph name="zero" format="2">
  <advance width="620"/>
  <unicode hex="0030"/>
  <outline>
    <contour>
      <point x="305" y="115" type="curve" smooth="yes"/>
      <point x="209" y="115"/>
      <point x="160" y="221"/>
      <point x="160" y="360" type="curve" smooth="yes"/>
      <point x="160" y="499"/>
      <point x="209" y="605"/>
      <point x="305" y="605" type="curve" smooth="yes"/>
      <point x="401" y="605"/>
      <point x="450" y="499"/>
      <point x="450" y="360" type="curve" smooth="yes"/>
      <point x="450" y="221"/>
      <point x="401" y="115"/>
    </contour>
    <contour>
      <point x="305" y="-10" type="curve" smooth="yes"/>
      <point x="487" y="-10"/>
      <point x="580" y="144"/>
      <point x="580" y="360" type="curve" smooth="yes"/>
      <point x="580" y="576"/>
      <point x="487" y="730"/>
      <point x="305" y="730" type="curve" smooth="yes"/>
      <point x="122" y="730"/>
      <point x="30" y="576"/>
      <point x="30" y="360" type="curve" smooth="yes"/>
      <point x="30" y="144"/>
      <point x="122" y="-10"/>
    </contour>
  </outline>
</glyph>
<glyph name="one" format="2">
  <advance width="620"/>
  <unicode hex="0031"/>
  <outline>
    <contour>
      <point x="285" y="0" type="line"/>
      <point x="420" y="0" type="line"/>
      <point x="420" y="720" type="line"/>
      <point x="276" y="720" type="line"/>
      <point x="103" y="570" type="line"/>
      <point x="189" y="484" type="line"/>
      <point x="271" y="554" type="line"/>
      <point x="289" y="576" type="line"/>
      <point x="285" y="554" type="line"/>
    </contour>
  </outline>
</glyph>
<glyph name="two" format="2">
  <advance width="620"/>
  <unicode hex="0032"/>
  <outline>
    <contour>
      <point x="55" y="0" type="line"/>
      <point x="573" y="0" type="line"/>
      <point x="573" y="115" type="line"/>
      <point x="194" y="115" type="line"/>
      <point x="194" y="203"/>
      <point x="334" y="259"/>
      <point x="410" y="288" type="curve" smooth="yes"/>
      <point x="487" y="317"/>
      <point x="565" y="384"/>
      <point x="565" y="509" type="curve" smooth="yes"/>
      <point x="565" y="624"/>
      <point x="483" y="730"/>
      <point x="310" y="730" type="curve" smooth="yes"/>
      <point x="138" y="730"/>
      <point x="55" y="614"/>
      <point x="45" y="528" type="curve"/>
      <point x="161" y="480" type="line"/>
      <point x="170" y="557"/>
      <point x="224" y="614"/>
      <point x="310" y="614" type="curve" smooth="yes"/>
      <point x="397" y="614"/>
      <point x="430" y="547"/>
      <point x="430" y="509" type="curve" smooth="yes"/>
      <point x="430" y="461"/>
      <point x="410" y="413"/>
      <point x="314" y="373" type="curve" smooth="yes"/>
      <point x="199" y="326"/>
      <point x="55" y="250"/>
      <point x="55" y="115" type="curve" smooth="yes"/>
    </contour>
  </outline>
</glyph>
<glyph name="three" format="2">
  <advance width="620"/>
  <unicode hex="0033"/>
  <outline>
    <contour>
      <point x="150" y="221" type="curve"/>
      <point x="35" y="163" type="line"/>
      <point x="64" y="77"/>
      <point x="132" y="-10"/>
      <point x="305" y="-10" type="curve" smooth="yes"/>
      <point x="477" y="-10"/>
      <point x="575" y="96"/>
      <point x="575" y="202" type="curve" smooth="yes"/>
      <point x="575" y="307"/>
      <point x="492" y="364"/>
      <point x="438" y="374" type="curve"/>
      <point x="490" y="383"/>
      <point x="565" y="448"/>
      <point x="565" y="528" type="curve" smooth="yes"/>
      <point x="565" y="643"/>
      <point x="477" y="730"/>
      <point x="305" y="730" type="curve" smooth="yes"/>
      <point x="132" y="730"/>
      <point x="65" y="624"/>
      <point x="45" y="547" type="curve"/>
      <point x="155" y="499" type="line"/>
      <point x="171" y="557"/>
      <point x="218" y="614"/>
      <point x="305" y="614" type="curve" smooth="yes"/>
      <point x="391" y="614"/>
      <point x="430" y="571"/>
      <point x="430" y="523" type="curve" smooth="yes"/>
      <point x="430" y="456"/>
      <point x="371" y="422"/>
      <point x="265" y="422" type="curve"/>
      <point x="265" y="317" type="line"/>
      <point x="371" y="317"/>
      <point x="440" y="283"/>
      <point x="440" y="206" type="curve" smooth="yes"/>
      <point x="440" y="158"/>
      <point x="401" y="106"/>
      <point x="305" y="106" type="curve" smooth="yes"/>
      <point x="209" y="106"/>
      <point x="169" y="163"/>
    </contour>
  </outline>
</glyph>
<glyph name="four" format="2">
  <advance width="620"/>
  <unicode hex="0034"/>
  <outline>
    <contour>
      <point x="55" y="173" type="line"/>
      <point x="359" y="173" type="line"/>
      <point x="359" y="0" type="line"/>
      <point x="479" y="0" type="line"/>
      <point x="479" y="173" type="line"/>
      <point x="595" y="173" type="line"/>
      <point x="595" y="288" type="line"/>
      <point x="479" y="288" type="line"/>
      <point x="479" y="720" type="line"/>
      <point x="345" y="720" type="line"/>
      <point x="55" y="302" type="line"/>
    </contour>
    <contour>
      <point x="180" y="288" type="line"/>
      <point x="340" y="525" type="line"/>
      <point x="364" y="568" type="line"/>
      <point x="359" y="525" type="line"/>
      <point x="359" y="288" type="line"/>
    </contour>
  </outline>
</glyph>
<glyph name="five" format="2">
  <advance width="620"/>
  <unicode hex="0035"/>
  <outline>
    <contour>
      <point x="55" y="144" type="line"/>
      <point x="92" y="72"/>
      <point x="144" y="-10"/>
      <point x="317" y="-10" type="curve" smooth="yes"/>
      <point x="471" y="-10"/>
      <point x="570" y="108"/>
      <point x="570" y="240" type="curve" smooth="yes"/>
      <point x="570" y="384"/>
      <point x="461" y="477"/>
      <point x="322" y="477" type="curve" smooth="yes"/>
      <point x="274" y="477"/>
      <point x="216" y="461"/>
      <point x="187" y="432" type="curve"/>
      <point x="205" y="595" type="line"/>
      <point x="543" y="595" type="line"/>
      <point x="543" y="720" type="line"/>
      <point x="100" y="720" type="line"/>
      <point x="61" y="326" type="line"/>
      <point x="159" y="298" type="line"/>
      <point x="187" y="336"/>
      <point x="235" y="368"/>
      <point x="303" y="368" type="curve" smooth="yes"/>
      <point x="384" y="368"/>
      <point x="435" y="317"/>
      <point x="435" y="240" type="curve" smooth="yes"/>
      <point x="435" y="163"/>
      <point x="380" y="112"/>
      <point x="308" y="112" type="curve" smooth="yes"/>
      <point x="212" y="112"/>
      <point x="175" y="171"/>
      <point x="155" y="206" type="curve"/>
    </contour>
  </outline>
</glyph>
<glyph name="six" format="2">
  <advance width="620"/>
  <unicode hex="0036"/>
  <outline>
    <contour>
      <point x="453" y="538" type="curve"/>
      <point x="559" y="600" type="line"/>
      <point x="544" y="632"/>
      <point x="488" y="730"/>
      <point x="325" y="730" type="curve" smooth="yes"/>
      <point x="161" y="730"/>
      <point x="45" y="605"/>
      <point x="45" y="360" type="curve" smooth="yes"/>
      <point x="45" y="115"/>
      <point x="161" y="-10"/>
      <point x="324" y="-10" type="curve" smooth="yes"/>
      <point x="487" y="-10"/>
      <point x="575" y="115"/>
      <point x="575" y="240" type="curve" smooth="yes"/>
      <point x="575" y="384"/>
      <point x="468" y="475"/>
      <point x="343" y="475" type="curve" smooth="yes"/>
      <point x="295" y="475"/>
      <point x="223" y="466"/>
      <point x="185" y="398" type="curve"/>
      <point x="185" y="523"/>
      <point x="238" y="610"/>
      <point x="330" y="610" type="curve" smooth="yes"/>
      <point x="402" y="610"/>
      <point x="429" y="571"/>
    </contour>
    <contour>
      <point x="320" y="106" type="curve" smooth="yes"/>
      <point x="246" y="106"/>
      <point x="195" y="167"/>
      <point x="195" y="235" type="curve" smooth="yes"/>
      <point x="195" y="303"/>
      <point x="246" y="365"/>
      <point x="320" y="365" type="curve" smooth="yes"/>
      <point x="394" y="365"/>
      <point x="445" y="303"/>
      <point x="445" y="235" type="curve" smooth="yes"/>
      <point x="445" y="167"/>
      <point x="394" y="106"/>
    </contour>
  </outline>
</glyph>
<glyph name="seven" format="2">
  <advance width="620"/>
  <unicode hex="0037"/>
  <outline>
    <contour>
      <point x="55" y="595" type="line"/>
      <point x="437" y="595" type="line"/>
      <point x="322" y="470"/>
      <point x="168" y="0"/>
      <point x="168" y="0" type="curve"/>
      <point x="312" y="0" type="line"/>
      <point x="312" y="0"/>
      <point x="459" y="470"/>
      <point x="565" y="595" type="curve"/>
      <point x="565" y="720" type="line"/>
      <point x="55" y="720" type="line"/>
    </contour>
  </outline>
</glyph>
<glyph name="eight" format="2">
  <advance width="620"/>
  <unicode hex="0038"/>
  <outline>
    <contour>
      <point x="192" y="374" type="curve"/>
      <point x="139" y="370"/>
      <point x="50" y="302"/>
      <point x="50" y="197" type="curve" smooth="yes"/>
      <point x="50" y="86"/>
      <point x="137" y="-10"/>
      <point x="310" y="-10" type="curve" smooth="yes"/>
      <point x="483" y="-10"/>
      <point x="570" y="86"/>
      <point x="570" y="197" type="curve" smooth="yes"/>
      <point x="570" y="302"/>
      <point x="475" y="370"/>
      <point x="422" y="374" type="curve"/>
      <point x="466" y="381"/>
      <point x="550" y="446"/>
      <point x="550" y="533" type="curve" smooth="yes"/>
      <point x="550" y="638"/>
      <point x="473" y="730"/>
      <point x="310" y="730" type="curve" smooth="yes"/>
      <point x="147" y="730"/>
      <point x="70" y="638"/>
      <point x="70" y="533" type="curve" smooth="yes"/>
      <point x="70" y="427"/>
      <point x="149" y="381"/>
    </contour>
    <contour>
      <point x="205" y="523" type="curve" smooth="yes"/>
      <point x="205" y="570"/>
      <point x="247" y="614"/>
      <point x="310" y="614" type="curve" smooth="yes"/>
      <point x="374" y="614"/>
      <point x="415" y="570"/>
      <point x="415" y="523" type="curve" smooth="yes"/>
      <point x="415" y="476"/>
      <point x="374" y="432"/>
      <point x="310" y="432" type="curve" smooth="yes"/>
      <point x="247" y="432"/>
      <point x="205" y="476"/>
    </contour>
    <contour>
      <point x="185" y="206" type="curve" smooth="yes"/>
      <point x="185" y="269"/>
      <point x="247" y="307"/>
      <point x="310" y="307" type="curve" smooth="yes"/>
      <point x="374" y="307"/>
      <point x="435" y="269"/>
      <point x="435" y="206" type="curve" smooth="yes"/>
      <point x="435" y="144"/>
      <point x="374" y="106"/>
      <point x="310" y="106" type="curve" smooth="yes"/>
      <point x="247" y="106"/>
      <point x="185" y="144"/>
    </contour>
  </outline>
</glyph>
<glyph name="nine" format="2">
  <advance width="620"/>
  <unicode hex="0039"/>
  <outline>
    <contour>
      <point x="60" y="120" type="line"/>
      <point x="75" y="88"/>
      <point x="133" y="-10"/>
      <point x="296" y="-10" type="curve" smooth="yes"/>
      <point x="459" y="-10"/>
      <point x="575" y="115"/>
      <point x="575" y="360" type="curve" smooth="yes"/>
      <point x="575" y="605"/>
      <point x="461" y="730"/>
      <point x="298" y="730" type="curve" smooth="yes"/>
      <point x="135" y="730"/>
      <point x="45" y="605"/>
      <point x="45" y="480" type="curve" smooth="yes"/>
      <point x="45" y="336"/>
      <point x="155" y="245"/>
      <point x="280" y="245" type="curve" smooth="yes"/>
      <point x="328" y="245"/>
      <point x="399" y="254"/>
      <point x="437" y="322" type="curve"/>
      <point x="437" y="197"/>
      <point x="382" y="110"/>
      <point x="291" y="110" type="curve" smooth="yes"/>
      <point x="219" y="110"/>
      <point x="189" y="149"/>
      <point x="165" y="182" type="curve"/>
    </contour>
    <contour>
      <point x="300" y="355" type="curve" smooth="yes"/>
      <point x="226" y="355"/>
      <point x="175" y="417"/>
      <point x="175" y="485" type="curve" smooth="yes"/>
      <point x="175" y="553"/>
      <point x="226" y="614"/>
      <point x="300" y="614" type="curve" smooth="yes"/>
      <point x="374" y="614"/>
      <point x="425" y="553"/>
      <point x="425" y="485" type="curve" smooth="yes"/>
      <point x="425" y="417"/>
      <point x="374" y="355"/>
    </contour>
  </outline>
</glyph>
<glyph name="colon" format="2">
  <advance width="270"/>
  <unicode hex="003A"/>
  <outline>
    <contour>
      <point x="65" y="0" type="line"/>
      <point x="205" y="0" type="line"/>
      <point x="205" y="140" type="line"/>
      <point x="65" y="140" type="line"/>
    </contour>
    <contour>
      <point x="65" y="330" type="line"/>
      <point x="205" y="330" type="line"/>
      <point x="205" y="470" type="line"/>
      <point x="65" y="470" type="line"/>
    </contour>
  </outline>
</glyph>
<glyph name="semicolon" format="2">
  <advance width="270"/>
  <unicode hex="003B"/>
  <outline>
    <contour>
      <point x="65" y="330" type="line"/>
      <point x="205" y="330" type="line"/>
      <point x="205" y="470" type="line"/>
      <point x="65" y="470" type="line"/>
    </contour>
    <contour>
      <point x="57" y="-144" type="line"/>
      <point x="67" y="-144" type="line"/>
      <point x="185" y="-50" type="line"/>
      <point x="205" y="140" type="line"/>
      <point x="65" y="140" type="line"/>
      <point x="65" y="-2" type="line"/>
      <point x="105" y="-24" type="line"/>
    </contour>
  </outline>
</glyph>
<glyph name="less" format="2">
  <advance width="480"/>
  <unicode hex="003C"/>
  <outline>
    <contour>
      <point x="35" y="250" type="line"/>
      <point x="415" y="50" type="line"/>
      <point x="445" y="150" type="line"/>
      <point x="165" y="300" type="line"/>
      <point x="445" y="450" type="line"/>
      <point x="425" y="550" type="line"/>
      <point x="35" y="350" type="line"/>
    </contour>
  </outline>
</glyph>
<glyph name="equal" format="2">
  <advance width="450"/>
  <unicode hex="003D"/>
  <outline>
    <contour>
      <point x="55" y="350" type="line"/>
      <point x="395" y="350" type="line"/>
      <point x="395" y="430" type="line"/>
      <point x="55" y="430" type="line"/>
    </contour>
    <contour>
      <point x="55" y="190" type="line"/>
      <point x="395" y="190" type="line"/>
      <point x="395" y="270" type="line"/>
      <point x="55" y="270" type="line"/>
    </contour>
  </outline>
</glyph>
<glyph name="greater" format="2">
  <advance width="480"/>
  <unicode hex="003E"/>
  <outline>
    <contour>
      <point x="65" y="50" type="line"/>
      <point x="445" y="250" type="line"/>
      <point x="445" y="350" type="line"/>
      <point x="55" y="550" type="line"/>
      <point x="35" y="450" type="line"/>
      <point x="315" y="300" type="line"/>
      <point x="35" y="150" type="line"/>
    </contour>
  </outline>
</glyph>
<glyph name="question" format="2">
  <advance width="548"/>
  <unicode hex="003F"/>
  <outline>
    <contour>
      <point x="259" y="211" type="line"/>
      <point x="281" y="256"/>
      <point x="326" y="281"/>
      <point x="379" y="317" type="curve"/>
      <point x="466" y="365"/>
      <point x="505" y="442"/>
      <point x="505" y="523" type="curve" smooth="yes"/>
      <point x="505" y="619"/>
      <point x="438" y="730"/>
      <point x="275" y="730" type="curve" smooth="yes"/>
      <point x="112" y="730"/>
      <point x="59" y="634"/>
      <point x="30" y="557" type="curve"/>
      <point x="135" y="509" type="line"/>
      <point x="150" y="542"/>
      <point x="184" y="614"/>
      <point x="275" y="614" type="curve" smooth="yes"/>
      <point x="356" y="614"/>
      <point x="375" y="552"/>
      <point x="375" y="514" type="curve" smooth="yes"/>
      <point x="375" y="475"/>
      <point x="360" y="442"/>
      <point x="303" y="403" type="curve"/>
      <point x="235" y="365"/>
      <point x="170" y="310"/>
      <point x="161" y="269" type="curve"/>
    </contour>
    <contour>
      <point x="180" y="0" type="line"/>
      <point x="320" y="0" type="line"/>
      <point x="320" y="140" type="line"/>
      <point x="180" y="140" type="line"/>
    </contour>
  </outline>
</glyph>
<glyph name="at" format="2">
  <advance width="820"/>
  <unicode hex="0040"/>
  <outline>
    <contour>
      <point x="654" y="0" type="curve"/>
      <point x="617" y="29" type="line"/>
      <point x="560" y="-15"/>
      <point x="488" y="-41"/>
      <point x="410" y="-41" type="curve" smooth="yes"/>
      <point x="222" y="-41"/>
      <point x="91" y="94"/>
      <point x="91" y="298" type="curve" smooth="yes"/>
      <point x="91" y="502"/>
      <point x="222" y="638"/>
      <point x="410" y="638" type="curve" smooth="yes"/>
      <point x="598" y="638"/>
      <point x="730" y="502"/>
      <point x="730" y="298" type="curve" smooth="yes"/>
      <point x="730" y="198"/>
      <point x="689" y="126"/>
      <point x="642" y="126" type="curve" smooth="yes"/>
      <point x="610" y="126"/>
      <point x="603" y="158"/>
      <point x="603" y="174" type="curve" smooth="yes"/>
      <point x="603" y="530" type="line"/>
      <point x="504" y="530" type="line"/>
      <point x="504" y="488" type="line"/>
      <point x="479" y="518"/>
      <point x="448" y="539"/>
      <point x="374" y="539" type="curve" smooth="yes"/>
      <point x="288" y="539"/>
      <point x="169" y="457"/>
      <point x="169" y="298" type="curve" smooth="yes"/>
      <point x="169" y="138"/>
      <point x="279" y="58"/>
      <point x="369" y="58" type="curve" smooth="yes"/>
      <point x="444" y="58"/>
      <point x="494" y="93"/>
      <point x="519" y="123" type="curve"/>
      <point x="552" y="65"/>
      <point x="591" y="58"/>
      <point x="620" y="58" type="curve" smooth="yes"/>
      <point x="697" y="58"/>
      <point x="775" y="178"/>
      <point x="775" y="298" type="curve" smooth="yes"/>
      <point x="775" y="531"/>
      <point x="623" y="683"/>
      <point x="410" y="683" type="curve" smooth="yes"/>
      <point x="197" y="683"/>
      <point x="45" y="531"/>
      <point x="45" y="298" type="curve" smooth="yes"/>
      <point x="45" y="65"/>
      <point x="197" y="-87"/>
      <point x="410" y="-87" type="curve" smooth="yes"/>
      <point x="503" y="-87"/>
      <point x="588" y="-55"/>
    </contour>
    <contour>
      <point x="504" y="403" type="curve"/>
      <point x="504" y="201" type="line"/>
      <point x="489" y="176"/>
      <point x="464" y="142"/>
      <point x="399" y="142" type="curve" smooth="yes"/>
      <point x="334" y="142"/>
      <point x="271" y="188"/>
      <point x="271" y="298" type="curve" smooth="yes"/>
      <point x="271" y="408"/>
      <point x="334" y="457"/>
      <point x="399" y="457" type="curve" smooth="yes"/>
      <point x="463" y="457"/>
      <point x="489" y="428"/>
    </contour>
  </outline>
</glyph>
<glyph name="A" format="2">
  <advance width="701"/>
  <unicode hex="0041"/>
  <outline>
    <contour>
      <point x="15" y="0" type="line"/>
      <point x="168" y="0" type="line"/>
      <point x="226" y="173" type="line"/>
      <point x="475" y="173" type="line"/>
      <point x="533" y="0" type="line"/>
      <point x="687" y="0" type="line"/>
      <point x="418" y="720" type="line"/>
      <point x="283" y="720" type="line"/>
    </contour>
    <contour>
      <point x="264" y="288" type="line"/>
      <point x="341" y="528" type="line"/>
      <point x="351" y="568" type="line"/>
      <point x="360" y="528" type="line"/>
      <point x="437" y="288" type="line"/>
    </contour>
  </outline>
</glyph>
<glyph name="B" format="2">
  <advance width="650"/>
  <unicode hex="0042"/>
  <outline>
    <contour>
      <point x="55" y="0" type="line"/>
      <point x="375" y="0" type="line" smooth="yes"/>
      <point x="528" y="0"/>
      <point x="615" y="95"/>
      <point x="615" y="201" type="curve" smooth="yes"/>
      <point x="615" y="325"/>
      <point x="538" y="362"/>
      <point x="480" y="374" type="curve"/>
      <point x="520" y="382"/>
      <point x="595" y="441"/>
      <point x="595" y="533" type="curve" smooth="yes"/>
      <point x="595" y="633"/>
      <point x="519" y="720"/>
      <point x="375" y="720" type="curve" smooth="yes"/>
      <point x="55" y="720" type="line"/>
    </contour>
    <contour>
      <point x="189" y="432" type="line"/>
      <point x="189" y="595" type="line"/>
      <point x="375" y="595" type="line" smooth="yes"/>
      <point x="430" y="595"/>
      <point x="455" y="554"/>
      <point x="455" y="514" type="curve" smooth="yes"/>
      <point x="455" y="472"/>
      <point x="430" y="432"/>
      <point x="375" y="432" type="curve" smooth="yes"/>
    </contour>
    <contour>
      <point x="189" y="125" type="line"/>
      <point x="189" y="307" type="line"/>
      <point x="375" y="307" type="line" smooth="yes"/>
      <point x="437" y="307"/>
      <point x="465" y="261"/>
      <point x="465" y="216" type="curve" smooth="yes"/>
      <point x="465" y="170"/>
      <point x="436" y="125"/>
      <point x="375" y="125" type="curve" smooth="yes"/>
    </contour>
  </outline>
</glyph>
<glyph name="C" format="2">
  <advance width="711"/>
  <unicode hex="0043"/>
  <outline>
    <contour>
      <point x="565" y="230" type="line"/>
      <point x="544" y="190"/>
      <point x="491" y="115"/>
      <point x="380" y="115" type="curve" smooth="yes"/>
      <point x="270" y="115"/>
      <point x="185" y="202"/>
      <point x="185" y="360" type="curve" smooth="yes"/>
      <point x="185" y="518"/>
      <point x="270" y="605"/>
      <point x="380" y="605" type="curve" smooth="yes"/>
      <point x="491" y="605"/>
      <point x="546" y="528"/>
      <point x="565" y="490" type="curve"/>
      <point x="680" y="557" type="line"/>
      <point x="651" y="614"/>
      <point x="572" y="730"/>
      <point x="380" y="730" type="curve" smooth="yes"/>
      <point x="188" y="730"/>
      <point x="40" y="605"/>
      <point x="40" y="360" type="curve" smooth="yes"/>
      <point x="40" y="115"/>
      <point x="188" y="-10"/>
      <point x="380" y="-10" type="curve" smooth="yes"/>
      <point x="572" y="-10"/>
      <point x="651" y="106"/>
      <point x="680" y="163" type="curve"/>
    </contour>
  </outline>
</glyph>
<glyph name="D" format="2">
  <advance width="710"/>
  <unicode hex="0044"/>
  <outline>
    <contour>
      <point x="55" y="0" type="line"/>
      <point x="343" y="0" type="line" smooth="yes"/>
      <point x="511" y="0"/>
      <point x="670" y="125"/>
      <point x="670" y="360" type="curve" smooth="yes"/>
      <point x="670" y="595"/>
      <point x="510" y="720"/>
      <point x="343" y="720" type="curve" smooth="yes"/>
      <point x="55" y="720" type="line"/>
    </contour>
    <contour>
      <point x="189" y="125" type="line"/>
      <point x="189" y="595" type="line"/>
      <point x="333" y="595" type="line" smooth="yes"/>
      <point x="437" y="595"/>
      <point x="525" y="509"/>
      <point x="525" y="360" type="curve" smooth="yes"/>
      <point x="525" y="211"/>
      <point x="439" y="125"/>
      <point x="333" y="125" type="curve" smooth="yes"/>
    </contour>
  </outline>
</glyph>
<glyph name="E" format="2">
  <advance width="590"/>
  <unicode hex="0045"/>
  <outline>
    <contour>
      <point x="55" y="0" type="line"/>
      <point x="535" y="0" type="line"/>
      <point x="535" y="125" type="line"/>
      <point x="189" y="125" type="line"/>
      <point x="189" y="307" type="line"/>
      <point x="495" y="307" type="line"/>
      <point x="495" y="432" type="line"/>
      <point x="189" y="432" type="line"/>
      <point x="189" y="595" type="line"/>
      <point x="525" y="595" type="line"/>
      <point x="525" y="720" type="line"/>
      <point x="55" y="720" type="line"/>
    </contour>
  </outline>
</glyph>
<glyph name="F" format="2">
  <advance width="560"/>
  <unicode hex="0046"/>
  <outline>
    <contour>
      <point x="55" y="0" type="line"/>
      <point x="189" y="0" type="line"/>
      <point x="189" y="307" type="line"/>
      <point x="495" y="307" type="line"/>
      <point x="495" y="432" type="line"/>
      <point x="189" y="432" type="line"/>
      <point x="189" y="595" type="line"/>
      <point x="525" y="595" type="line"/>
      <point x="525" y="720" type="line"/>
      <point x="55" y="720" type="line"/>
    </contour>
  </outline>
</glyph>
<glyph name="G" format="2">
  <advance width="750"/>
  <unicode hex="0047"/>
  <outline>
    <contour>
      <point x="412" y="269" type="line"/>
      <point x="566" y="269" type="line"/>
      <point x="566" y="221" type="line"/>
      <point x="551" y="182"/>
      <point x="496" y="115"/>
      <point x="380" y="115" type="curve" smooth="yes"/>
      <point x="284" y="115"/>
      <point x="185" y="202"/>
      <point x="185" y="360" type="curve" smooth="yes"/>
      <point x="185" y="518"/>
      <point x="265" y="605"/>
      <point x="380" y="605" type="curve" smooth="yes"/>
      <point x="496" y="605"/>
      <point x="542" y="520"/>
      <point x="563" y="480" type="curve"/>
      <point x="678" y="557" type="line"/>
      <point x="652" y="617"/>
      <point x="572" y="730"/>
      <point x="380" y="730" type="curve" smooth="yes"/>
      <point x="188" y="730"/>
      <point x="40" y="605"/>
      <point x="40" y="360" type="curve" smooth="yes"/>
      <point x="40" y="115"/>
      <point x="188" y="-10"/>
      <point x="380" y="-10" type="curve" smooth="yes"/>
      <point x="450" y="-10"/>
      <point x="542" y="25"/>
      <point x="575" y="82" type="curve"/>
      <point x="585" y="0" type="line"/>
      <point x="700" y="0" type="line"/>
      <point x="700" y="384" type="line"/>
      <point x="412" y="384" type="line"/>
    </contour>
  </outline>
</glyph>
<glyph name="H" format="2">
  <advance width="680"/>
  <unicode hex="0048"/>
  <outline>
    <contour>
      <point x="55" y="0" type="line"/>
      <point x="190" y="0" type="line"/>
      <point x="190" y="326" type="line"/>
      <point x="490" y="326" type="line"/>
      <point x="490" y="0" type="line"/>
      <point x="625" y="0" type="line"/>
      <point x="625" y="720" type="line"/>
      <point x="490" y="720" type="line"/>
      <point x="490" y="451" type="line"/>
      <point x="190" y="451" type="line"/>
      <point x="190" y="720" type="line"/>
      <point x="55" y="720" type="line"/>
    </contour>
  </outline>
</glyph>
<glyph name="I" format="2">
  <advance width="265"/>
  <unicode hex="0049"/>
  <outline>
    <contour>
      <point x="65" y="0" type="line"/>
      <point x="200" y="0" type="line"/>
      <point x="200" y="720" type="line"/>
      <point x="65" y="720" type="line"/>
    </contour>
  </outline>
</glyph>
<glyph name="J" format="2">
  <advance width="425"/>
  <unicode hex="004A"/>
  <outline>
    <contour>
      <point x="235" y="720" type="line"/>
      <point x="235" y="187" type="line" smooth="yes"/>
      <point x="235" y="130"/>
      <point x="190" y="109"/>
      <point x="157" y="109" type="curve" smooth="yes"/>
      <point x="120" y="109"/>
      <point x="77" y="126"/>
      <point x="63" y="135" type="curve"/>
      <point x="15" y="35" type="line"/>
      <point x="57" y="6"/>
      <point x="116" y="-10"/>
      <point x="193" y="-10" type="curve" smooth="yes"/>
      <point x="294" y="-10"/>
      <point x="370" y="62"/>
      <point x="370" y="163" type="curve" smooth="yes"/>
      <point x="370" y="720" type="line"/>
    </contour>
  </outline>
</glyph>
<glyph name="K" format="2">
  <advance width="620"/>
  <unicode hex="004B"/>
  <outline>
    <contour>
      <point x="55" y="0" type="line"/>
      <point x="190" y="0" type="line"/>
      <point x="190" y="240" type="line"/>
      <point x="237" y="302" type="line"/>
      <point x="449" y="0" type="line"/>
      <point x="612" y="0" type="line"/>
      <point x="324" y="403" type="line"/>
      <point x="583" y="720" type="line"/>
      <point x="429" y="720" type="line"/>
      <point x="190" y="432" type="line"/>
      <point x="190" y="720" type="line"/>
      <point x="55" y="720" type="line"/>
    </contour>
  </outline>
</glyph>
<glyph name="L" format="2">
  <advance width="540"/>
  <unicode hex="004C"/>
  <outline>
    <contour>
      <point x="55" y="0" type="line"/>
      <point x="515" y="0" type="line"/>
      <point x="515" y="125" type="line"/>
      <point x="190" y="125" type="line"/>
      <point x="190" y="720" type="line"/>
      <point x="55" y="720" type="line"/>
    </contour>
  </outline>
</glyph>
<glyph name="M" format="2">
  <advance width="820"/>
  <unicode hex="004D"/>
  <outline>
    <contour>
      <point x="55" y="0" type="line"/>
      <point x="190" y="0" type="line"/>
      <point x="190" y="456" type="line"/>
      <point x="187" y="499" type="line"/>
      <point x="201" y="456" type="line"/>
      <point x="353" y="0" type="line"/>
      <point x="467" y="0" type="line"/>
      <point x="619" y="456" type="line"/>
      <point x="633" y="499" type="line"/>
      <point x="630" y="456" type="line"/>
      <point x="630" y="0" type="line"/>
      <point x="765" y="0" type="line"/>
      <point x="765" y="720" type="line"/>
      <point x="593" y="720" type="line"/>
      <point x="421" y="240" type="line"/>
      <point x="410" y="200" type="line"/>
      <point x="400" y="240" type="line"/>
      <point x="228" y="720" type="line"/>
      <point x="55" y="720" type="line"/>
    </contour>
  </outline>
</glyph>
<glyph name="N" format="2">
  <advance width="695"/>
  <unicode hex="004E"/>
  <outline>
    <contour>
      <point x="55" y="0" type="line"/>
      <point x="190" y="0" type="line"/>
      <point x="190" y="480" type="line"/>
      <point x="187" y="516" type="line"/>
      <point x="204" y="480" type="line"/>
      <point x="495" y="0" type="line"/>
      <point x="640" y="0" type="line"/>
      <point x="640" y="720" type="line"/>
      <point x="505" y="720" type="line"/>
      <point x="505" y="240" type="line"/>
      <point x="508" y="206" type="line"/>
      <point x="491" y="240" type="line"/>
      <point x="210" y="720" type="line"/>
      <point x="55" y="720" type="line"/>
    </contour>
  </outline>
</glyph>
<glyph name="O" format="2">
  <advance width="780"/>
  <unicode hex="004F"/>
  <outline>
    <contour>
      <point x="390" y="115" type="curve" smooth="yes"/>
      <point x="275" y="115"/>
      <point x="185" y="202"/>
      <point x="185" y="360" type="curve" smooth="yes"/>
      <point x="185" y="518"/>
      <point x="275" y="605"/>
      <point x="390" y="605" type="curve" smooth="yes"/>
      <point x="505" y="605"/>
      <point x="595" y="518"/>
      <point x="595" y="360" type="curve" smooth="yes"/>
      <point x="595" y="202"/>
      <point x="505" y="115"/>
    </contour>
    <contour>
      <point x="390" y="-10" type="curve" smooth="yes"/>
      <point x="582" y="-10"/>
      <point x="740" y="115"/>
      <point x="740" y="360" type="curve" smooth="yes"/>
      <point x="740" y="605"/>
      <point x="582" y="730"/>
      <point x="390" y="730" type="curve" smooth="yes"/>
      <point x="198" y="730"/>
      <point x="40" y="605"/>
      <point x="40" y="360" type="curve" smooth="yes"/>
      <point x="40" y="115"/>
      <point x="198" y="-10"/>
    </contour>
  </outline>
</glyph>
<glyph name="P" format="2">
  <advance width="625"/>
  <unicode hex="0050"/>
  <outline>
    <contour>
      <point x="55" y="0" type="line"/>
      <point x="189" y="0" type="line"/>
      <point x="189" y="278" type="line"/>
      <point x="357" y="278" type="line" smooth="yes"/>
      <point x="492" y="278"/>
      <point x="590" y="374"/>
      <point x="590" y="499" type="curve" smooth="yes"/>
      <point x="590" y="624"/>
      <point x="492" y="720"/>
      <point x="357" y="720" type="curve" smooth="yes"/>
      <point x="55" y="720" type="line"/>
    </contour>
    <contour>
      <point x="189" y="403" type="line"/>
      <point x="189" y="595" type="line"/>
      <point x="357" y="595" type="line" smooth="yes"/>
      <point x="417" y="595"/>
      <point x="455" y="548"/>
      <point x="455" y="500" type="curve" smooth="yes"/>
      <point x="455" y="452"/>
      <point x="416" y="403"/>
      <point x="357" y="403" type="curve" smooth="yes"/>
    </contour>
  </outline>
</glyph>
<glyph name="Q" format="2">
  <advance width="780"/>
  <unicode hex="0051"/>
  <outline>
    <contour>
      <point x="390" y="115" type="curve" smooth="yes"/>
      <point x="275" y="115"/>
      <point x="185" y="202"/>
      <point x="185" y="360" type="curve" smooth="yes"/>
      <point x="185" y="518"/>
      <point x="275" y="605"/>
      <point x="390" y="605" type="curve" smooth="yes"/>
      <point x="505" y="605"/>
      <point x="595" y="518"/>
      <point x="595" y="360" type="curve" smooth="yes"/>
      <point x="595" y="202"/>
      <point x="505" y="115"/>
    </contour>
    <contour>
      <point x="390" y="730" type="curve" smooth="yes"/>
      <point x="198" y="730"/>
      <point x="40" y="605"/>
      <point x="40" y="360" type="curve" smooth="yes"/>
      <point x="40" y="115"/>
      <point x="198" y="-10"/>
      <point x="390" y="-10" type="curve" smooth="yes"/>
      <point x="419" y="-10"/>
      <point x="448" y="-55"/>
      <point x="466" y="-77" type="curve" smooth="yes"/>
      <point x="514" y="-134"/>
      <point x="591" y="-154"/>
      <point x="667" y="-154" type="curve"/>
      <point x="744" y="-58" type="line"/>
      <point x="677" y="-48"/>
      <point x="581" y="-29"/>
      <point x="552" y="29" type="curve"/>
      <point x="669" y="96"/>
      <point x="740" y="191"/>
      <point x="740" y="360" type="curve" smooth="yes"/>
      <point x="740" y="605"/>
      <point x="582" y="730"/>
    </contour>
  </outline>
</glyph>
<glyph name="R" format="2">
  <advance width="650"/>
  <unicode hex="0052"/>
  <outline>
    <contour>
      <point x="55" y="0" type="line"/>
      <point x="190" y="0" type="line"/>
      <point x="190" y="288" type="line"/>
      <point x="341" y="288" type="line"/>
      <point x="472" y="0" type="line"/>
      <point x="616" y="0" type="line"/>
      <point x="475" y="298" type="line"/>
      <point x="518" y="306"/>
      <point x="610" y="379"/>
      <point x="610" y="504" type="curve" smooth="yes"/>
      <point x="610" y="629"/>
      <point x="514" y="720"/>
      <point x="395" y="720" type="curve" smooth="yes"/>
      <point x="55" y="720" type="line"/>
    </contour>
    <contour>
      <point x="190" y="413" type="line"/>
      <point x="190" y="595" type="line"/>
      <point x="375" y="595" type="line" smooth="yes"/>
      <point x="437" y="595"/>
      <point x="470" y="546"/>
      <point x="470" y="504" type="curve" smooth="yes"/>
      <point x="470" y="453"/>
      <point x="437" y="413"/>
      <point x="375" y="413" type="curve" smooth="yes"/>
    </contour>
  </outline>
</glyph>
<glyph name="S" format="2">
  <advance width="660"/>
  <unicode hex="0053"/>
  <outline>
    <contour>
      <point x="589" y="596" type="line"/>
      <point x="565" y="650"/>
      <point x="475" y="730"/>
      <point x="325" y="730" type="curve" smooth="yes"/>
      <point x="174" y="730"/>
      <point x="59" y="650"/>
      <point x="59" y="525" type="curve" smooth="yes"/>
      <point x="59" y="384"/>
      <point x="171" y="331"/>
      <point x="306" y="310" type="curve" smooth="yes"/>
      <point x="433" y="290"/>
      <point x="471" y="261"/>
      <point x="471" y="201" type="curve" smooth="yes"/>
      <point x="471" y="153"/>
      <point x="407" y="106"/>
      <point x="330" y="106" type="curve" smooth="yes"/>
      <point x="264" y="106"/>
      <point x="183" y="137"/>
      <point x="145" y="211" type="curve"/>
      <point x="32" y="147" type="line"/>
      <point x="69" y="60"/>
      <point x="180" y="-10"/>
      <point x="328" y="-10" type="curve" smooth="yes"/>
      <point x="496" y="-10"/>
      <point x="618" y="81"/>
      <point x="618" y="212" type="curve" smooth="yes"/>
      <point x="618" y="373"/>
      <point x="466" y="406"/>
      <point x="362" y="430" type="curve"/>
      <point x="251" y="448"/>
      <point x="203" y="478"/>
      <point x="203" y="533" type="curve" smooth="yes"/>
      <point x="203" y="571"/>
      <point x="244" y="614"/>
      <point x="322" y="614" type="curve" smooth="yes"/>
      <point x="398" y="614"/>
      <point x="447" y="580"/>
      <point x="474" y="538" type="curve"/>
    </contour>
  </outline>
</glyph>
<glyph name="T" format="2">
  <advance width="570"/>
  <unicode hex="0054"/>
  <outline>
    <contour>
      <point x="215" y="0" type="line"/>
      <point x="350" y="0" type="line"/>
      <point x="350" y="595" type="line"/>
      <point x="550" y="595" type="line"/>
      <point x="550" y="720" type="line"/>
      <point x="15" y="720" type="line"/>
      <point x="15" y="595" type="line"/>
      <point x="215" y="595" type="line"/>
    </contour>
  </outline>
</glyph>
<glyph name="U" format="2">
  <advance width="670"/>
  <unicode hex="0055"/>
  <outline>
    <contour>
      <point x="55" y="720" type="line"/>
      <point x="55" y="221" type="line" smooth="yes"/>
      <point x="55" y="101"/>
      <point x="172" y="-10"/>
      <point x="335" y="-10" type="curve" smooth="yes"/>
      <point x="499" y="-10"/>
      <point x="615" y="101"/>
      <point x="615" y="221" type="curve" smooth="yes"/>
      <point x="615" y="720" type="line"/>
      <point x="480" y="720" type="line"/>
      <point x="480" y="240" type="line" smooth="yes"/>
      <point x="480" y="173"/>
      <point x="422" y="115"/>
      <point x="335" y="115" type="curve" smooth="yes"/>
      <point x="249" y="115"/>
      <point x="190" y="173"/>
      <point x="190" y="240" type="curve" smooth="yes"/>
      <point x="190" y="720" type="line"/>
    </contour>
  </outline>
</glyph>
<glyph name="V" format="2">
  <advance width="700"/>
  <unicode hex="0056"/>
  <outline>
    <contour>
      <point x="283" y="0" type="line"/>
      <point x="417" y="0" type="line"/>
      <point x="685" y="720" type="line"/>
      <point x="541" y="720" type="line"/>
      <point x="359" y="192" type="line"/>
      <point x="350" y="152" type="line"/>
      <point x="340" y="192" type="line"/>
      <point x="168" y="720" type="line"/>
      <point x="15" y="720" type="line"/>
    </contour>
  </outline>
</glyph>
<glyph name="W" format="2">
  <advance width="912"/>
  <unicode hex="0057"/>
  <outline>
    <contour>
      <point x="197" y="0" type="line"/>
      <point x="331" y="0" type="line"/>
      <point x="449" y="442" type="line"/>
      <point x="455" y="482" type="line"/>
      <point x="464" y="442" type="line"/>
      <point x="581" y="0" type="line"/>
      <point x="715" y="0" type="line"/>
      <point x="907" y="720" type="line"/>
      <point x="773" y="720" type="line"/>
      <point x="656" y="250" type="line"/>
      <point x="648" y="209" type="line"/>
      <point x="641" y="250" type="line"/>
      <point x="514" y="720" type="line"/>
      <point x="399" y="720" type="line"/>
      <point x="272" y="250" type="line"/>
      <point x="264" y="209" type="line"/>
      <point x="257" y="250" type="line"/>
      <point x="139" y="720" type="line"/>
      <point x="5" y="720" type="line"/>
    </contour>
  </outline>
</glyph>
<glyph name="X" format="2">
  <advance width="682"/>
  <unicode hex="0058"/>
  <outline>
    <contour>
      <point x="15" y="0" type="line"/>
      <point x="178" y="0" type="line"/>
      <point x="329" y="230" type="line"/>
      <point x="341" y="259" type="line"/>
      <point x="353" y="230" type="line"/>
      <point x="504" y="0" type="line"/>
      <point x="667" y="0" type="line"/>
      <point x="423" y="374" type="line"/>
      <point x="648" y="720" type="line"/>
      <point x="485" y="720" type="line"/>
      <point x="353" y="518" type="line"/>
      <point x="341" y="490" type="line"/>
      <point x="329" y="518" type="line"/>
      <point x="197" y="720" type="line"/>
      <point x="34" y="720" type="line"/>
      <point x="259" y="374" type="line"/>
    </contour>
  </outline>
</glyph>
<glyph name="Y" format="2">
  <advance width="665"/>
  <unicode hex="0059"/>
  <outline>
    <contour>
      <point x="265" y="0" type="line"/>
      <point x="400" y="0" type="line"/>
      <point x="400" y="346" type="line"/>
      <point x="650" y="720" type="line"/>
      <point x="497" y="720" type="line"/>
      <point x="332" y="470" type="line"/>
      <point x="168" y="720" type="line"/>
      <point x="15" y="720" type="line"/>
      <point x="265" y="346" type="line"/>
    </contour>
  </outline>
</glyph>
<glyph name="Z" format="2">
  <advance width="650"/>
  <unicode hex="005A"/>
  <outline>
    <contour>
      <point x="45" y="0" type="line"/>
      <point x="610" y="0" type="line"/>
      <point x="610" y="125" type="line"/>
      <point x="209" y="125" type="line"/>
      <point x="610" y="576" type="line"/>
      <point x="610" y="720" type="line"/>
      <point x="45" y="720" type="line"/>
      <point x="45" y="595" type="line"/>
      <point x="458" y="595" type="line"/>
      <point x="45" y="144" type="line"/>
    </contour>
  </outline>
</glyph>
<glyph name="bracketleft" format="2">
  <advance width="380"/>
  <unicode hex="005B"/>
  <outline>
    <contour>
      <point x="55" y="-80" type="line"/>
      <point x="345" y="-80" type="line"/>
      <point x="345" y="0" type="line"/>
      <point x="155" y="0" type="line"/>
      <point x="155" y="660" type="line"/>
      <point x="345" y="660" type="line"/>
      <point x="345" y="750" type="line"/>
      <point x="55" y="750" type="line"/>
    </contour>
  </outline>
</glyph>
<glyph name="backslash" format="2">
  <advance width="420"/>
  <unicode hex="005C"/>
  <outline>
    <contour>
      <point x="315" y="-70" type="line"/>
      <point x="415" y="-70" type="line"/>
      <point x="105" y="750" type="line"/>
      <point x="5" y="750" type="line"/>
    </contour>
  </outline>
</glyph>
<glyph name="bracketright" format="2">
  <advance width="380"/>
  <unicode hex="005D"/>
  <outline>
    <contour>
      <point x="35" y="-80" type="line"/>
      <point x="325" y="-80" type="line"/>
      <point x="325" y="750" type="line"/>
      <point x="35" y="750" type="line"/>
      <point x="35" y="659" type="line"/>
      <point x="225" y="659" type="line"/>
      <point x="225" y="0" type="line"/>
      <point x="35" y="0" type="line"/>
    </contour>
  </outline>
</glyph>
<glyph name="asciicircum" format="2">
  <advance width="420"/>
  <unicode hex="005E"/>
  <outline>
    <contour>
      <point x="25" y="520" type="line"/>
      <point x="135" y="470" type="line"/>
      <point x="210" y="635" type="line"/>
      <point x="285" y="470" type="line"/>
      <point x="395" y="520" type="line"/>
      <point x="265" y="750" type="line"/>
      <point x="155" y="750" type="line"/>
    </contour>
  </outline>
</glyph>
<glyph name="underscore" format="2">
  <advance width="460"/>
  <unicode hex="005F"/>
  <outline>
    <contour>
      <point x="5" y="-170" type="line"/>
      <point x="455" y="-170" type="line"/>
      <point x="455" y="-100" type="line"/>
      <point x="5" y="-100" type="line"/>
    </contour>
  </outline>
</glyph>
<glyph name="a" format="2">
  <advance width="540"/>
  <unicode hex="0061"/>
  <outline>
    <contour>
      <point x="50" y="440" type="curve"/>
      <point x="120" y="370" type="line"/>
      <point x="130" y="380"/>
      <point x="188" y="425"/>
      <point x="258" y="425" type="curve" smooth="yes"/>
      <point x="320" y="425"/>
      <point x="360" y="394"/>
      <point x="360" y="355" type="curve" smooth="yes"/>
      <point x="360" y="295" type="line"/>
      <point x="322" y="314"/>
      <point x="275" y="326"/>
      <point x="221" y="326" type="curve" smooth="yes"/>
      <point x="164" y="326"/>
      <point x="30" y="295"/>
      <point x="30" y="155" type="curve" smooth="yes"/>
      <point x="30" y="52"/>
      <point x="120" y="-10"/>
      <point x="205" y="-10" type="curve" smooth="yes"/>
      <point x="286" y="-10"/>
      <point x="332" y="27"/>
      <point x="362" y="55" type="curve"/>
      <point x="378" y="0" type="line"/>
      <point x="515" y="0" type="line"/>
      <point x="504" y="22"/>
      <point x="492" y="62"/>
      <point x="490" y="90" type="curve"/>
      <point x="490" y="370" type="line" smooth="yes"/>
      <point x="490" y="470"/>
      <point x="387" y="530"/>
      <point x="274" y="530" type="curve" smooth="yes"/>
      <point x="136" y="530"/>
      <point x="70" y="464"/>
    </contour>
    <contour>
      <point x="360" y="215" type="curve"/>
      <point x="360" y="150" type="line"/>
      <point x="343" y="128"/>
      <point x="299" y="94"/>
      <point x="243" y="94" type="curve" smooth="yes"/>
      <point x="188" y="94"/>
      <point x="157" y="129"/>
      <point x="157" y="165" type="curve" smooth="yes"/>
      <point x="157" y="215"/>
      <point x="205" y="236"/>
      <point x="245" y="236" type="curve" smooth="yes"/>
      <point x="295" y="236"/>
      <point x="336" y="223"/>
    </contour>
  </outline>
</glyph>
<glyph name="b" format="2">
  <advance width="600"/>
  <unicode hex="0062"/>
  <outline>
    <contour>
      <point x="45" y="0" type="line"/>
      <point x="175" y="0" type="line"/>
      <point x="175" y="60" type="line"/>
      <point x="200" y="30"/>
      <point x="240" y="-10"/>
      <point x="335" y="-10" type="curve" smooth="yes"/>
      <point x="440" y="-10"/>
      <point x="570" y="70"/>
      <point x="570" y="260" type="curve" smooth="yes"/>
      <point x="570" y="450"/>
      <point x="440" y="530"/>
      <point x="335" y="530" type="curve" smooth="yes"/>
      <point x="240" y="530"/>
      <point x="200" y="490"/>
      <point x="175" y="460" type="curve"/>
      <point x="175" y="750" type="line"/>
      <point x="45" y="750" type="line"/>
    </contour>
    <contour>
      <point x="175" y="342" type="line"/>
      <point x="190" y="367"/>
      <point x="231" y="416"/>
      <point x="300" y="416" type="curve" smooth="yes"/>
      <point x="375" y="416"/>
      <point x="438" y="370"/>
      <point x="438" y="260" type="curve" smooth="yes"/>
      <point x="438" y="150"/>
      <point x="375" y="104"/>
      <point x="300" y="104" type="curve" smooth="yes"/>
      <point x="230" y="104"/>
      <point x="190" y="153"/>
      <point x="175" y="178" type="curve"/>
    </contour>
  </outline>
</glyph>
<glyph name="c" format="2">
  <advance width="555"/>
  <unicode hex="0063"/>
  <outline>
    <contour>
      <point x="412" y="330" type="curve"/>
      <point x="526" y="370" type="line"/>
      <point x="491" y="490"/>
      <point x="389" y="530"/>
      <point x="290" y="530" type="curve" smooth="yes"/>
      <point x="189" y="530"/>
      <point x="30" y="475"/>
      <point x="30" y="260" type="curve" smooth="yes"/>
      <point x="30" y="43"/>
      <point x="190" y="-10"/>
      <point x="290" y="-10" type="curve" smooth="yes"/>
      <point x="390" y="-10"/>
      <point x="491" y="30"/>
      <point x="526" y="150" type="curve"/>
      <point x="412" y="190" type="line"/>
      <point x="395" y="140"/>
      <point x="355" y="102"/>
      <point x="290" y="102" type="curve" smooth="yes"/>
      <point x="220" y="102"/>
      <point x="160" y="155"/>
      <point x="160" y="260" type="curve" smooth="yes"/>
      <point x="160" y="365"/>
      <point x="220" y="418"/>
      <point x="290" y="418" type="curve" smooth="yes"/>
      <point x="355" y="418"/>
      <point x="395" y="380"/>
    </contour>
  </outline>
</glyph>
<glyph name="e" format="2">
  <advance width="565"/>
  <unicode hex="0065"/>
  <outline>
    <contour>
      <point x="165" y="312" type="line"/>
      <point x="165" y="369"/>
      <point x="210" y="425"/>
      <point x="280" y="425" type="curve" smooth="yes"/>
      <point x="350" y="425"/>
      <point x="395" y="369"/>
      <point x="395" y="312" type="curve"/>
    </contour>
    <contour>
      <point x="415" y="160" type="line"/>
      <point x="377" y="113"/>
      <point x="345" y="95"/>
      <point x="285" y="95" type="curve" smooth="yes"/>
      <point x="225" y="95"/>
      <point x="165" y="141"/>
      <point x="165" y="218" type="curve"/>
      <point x="534" y="218" type="line"/>
      <point x="535" y="231"/>
      <point x="535" y="241"/>
      <point x="535" y="260" type="curve" smooth="yes"/>
      <point x="535" y="475"/>
      <point x="373" y="530"/>
      <point x="280" y="530" type="curve" smooth="yes"/>
      <point x="179" y="530"/>
      <point x="30" y="475"/>
      <point x="30" y="260" type="curve" smooth="yes"/>
      <point x="30" y="45"/>
      <point x="180" y="-10"/>
      <point x="280" y="-10" type="curve" smooth="yes"/>
      <point x="400" y="-10"/>
      <point x="478" y="40"/>
      <point x="518" y="110" type="curve"/>
    </contour>
  </outline>
</glyph>
<glyph name="f" format="2">
  <advance width="390"/>
  <unicode hex="0066"/>
  <outline>
    <contour>
      <point x="85" y="0" type="line"/>
      <point x="215" y="0" type="line"/>
      <point x="215" y="415" type="line"/>
      <point x="345" y="415" type="line"/>
      <point x="345" y="520" type="line"/>
      <point x="215" y="520" type="line"/>
      <point x="215" y="597" type="line" smooth="yes"/>
      <point x="215" y="632"/>
      <point x="242" y="653"/>
      <point x="277" y="653" type="curve" smooth="yes"/>
      <point x="308" y="653"/>
      <point x="340" y="634"/>
      <point x="355" y="625" type="curve"/>
      <point x="385" y="724" type="line"/>
      <point x="363" y="739"/>
      <point x="321" y="760"/>
      <point x="252" y="760" type="curve" smooth="yes"/>
      <point x="166" y="760"/>
      <point x="85" y="703"/>
      <point x="85" y="595" type="curve" smooth="yes"/>
      <point x="85" y="520" type="line"/>
      <point x="15" y="520" type="line"/>
      <point x="15" y="415" type="line"/>
      <point x="85" y="415" type="line"/>
    </contour>
  </outline>
</glyph>
<glyph name="g" format="2">
  <advance width="600"/>
  <unicode hex="0067"/>
  <outline>
    <contour>
      <point x="44" y="-129" type="line"/>
      <point x="89" y="-199"/>
      <point x="175" y="-240"/>
      <point x="299" y="-240" type="curve" smooth="yes"/>
      <point x="433" y="-240"/>
      <point x="555" y="-162"/>
      <point x="555" y="-30" type="curve" smooth="yes"/>
      <point x="555" y="520" type="line"/>
      <point x="425" y="520" type="line"/>
      <point x="425" y="460" type="line"/>
      <point x="400" y="490"/>
      <point x="360" y="530"/>
      <point x="265" y="530" type="curve" smooth="yes"/>
      <point x="160" y="530"/>
      <point x="30" y="450"/>
      <point x="30" y="260" type="curve" smooth="yes"/>
      <point x="30" y="70"/>
      <point x="160" y="-10"/>
      <point x="265" y="-10" type="curve" smooth="yes"/>
      <point x="360" y="-10"/>
      <point x="400" y="30"/>
      <point x="425" y="60" type="curve"/>
      <point x="425" y="-20" type="line" smooth="yes"/>
      <point x="425" y="-100"/>
      <point x="348" y="-130"/>
      <point x="290" y="-130" type="curve" smooth="yes"/>
      <point x="250" y="-130"/>
      <point x="172" y="-116"/>
      <point x="139" y="-57" type="curve"/>
    </contour>
    <contour>
      <point x="425" y="178" type="line"/>
      <point x="410" y="153"/>
      <point x="370" y="104"/>
      <point x="300" y="104" type="curve" smooth="yes"/>
      <point x="225" y="104"/>
      <point x="162" y="150"/>
      <point x="162" y="260" type="curve" smooth="yes"/>
      <point x="162" y="370"/>
      <point x="225" y="416"/>
      <point x="300" y="416" type="curve" smooth="yes"/>
      <point x="369" y="416"/>
      <point x="410" y="367"/>
      <point x="425" y="342" type="curve"/>
    </contour>
  </outline>
</glyph>
<glyph name="h" format="2">
  <advance width="550"/>
  <unicode hex="0068"/>
  <outline>
    <contour>
      <point x="45" y="0" type="line"/>
      <point x="175" y="0" type="line"/>
      <point x="175" y="334" type="line"/>
      <point x="179" y="357"/>
      <point x="230" y="415"/>
      <point x="290" y="415" type="curve" smooth="yes"/>
      <point x="345" y="415"/>
      <point x="375" y="385"/>
      <point x="375" y="340" type="curve" smooth="yes"/>
      <point x="375" y="0" type="line"/>
      <point x="505" y="0" type="line"/>
      <point x="505" y="360" type="line" smooth="yes"/>
      <point x="505" y="470"/>
      <point x="425" y="530"/>
      <point x="335" y="530" type="curve" smooth="yes"/>
      <point x="236" y="530"/>
      <point x="195" y="476"/>
      <point x="175" y="446" type="curve"/>
      <point x="175" y="750" type="line"/>
      <point x="45" y="750" type="line"/>
    </contour>
  </outline>
</glyph>
<glyph name="i" format="2">
  <advance width="240"/>
  <unicode hex="0069"/>
  <outline>
    <contour>
      <point x="55" y="0" type="line"/>
      <point x="185" y="0" type="line"/>
      <point x="185" y="520" type="line"/>
      <point x="55" y="520" type="line"/>
    </contour>
    <contour>
      <point x="55" y="630" type="line"/>
      <point x="185" y="630" type="line"/>
      <point x="185" y="750" type="line"/>
      <point x="55" y="750" type="line"/>
    </contour>
  </outline>
</glyph>
<glyph name="j" format="2">
  <advance width="270"/>
  <unicode hex="006A"/>
  <outline>
    <contour>
      <point x="-20" y="-100" type="curve"/>
      <point x="-55" y="-198" type="line"/>
      <point x="-27" y="-216"/>
      <point x="11" y="-235"/>
      <point x="70" y="-235" type="curve" smooth="yes"/>
      <point x="155" y="-235"/>
      <point x="215" y="-175"/>
      <point x="215" y="-95" type="curve" smooth="yes"/>
      <point x="215" y="520" type="line"/>
      <point x="85" y="520" type="line"/>
      <point x="85" y="-79" type="line" smooth="yes"/>
      <point x="85" y="-100"/>
      <point x="67" y="-120"/>
      <point x="45" y="-120" type="curve" smooth="yes"/>
      <point x="20" y="-120"/>
      <point x="-4" y="-109"/>
    </contour>
    <contour>
      <point x="85" y="630" type="line"/>
      <point x="215" y="630" type="line"/>
      <point x="215" y="750" type="line"/>
      <point x="85" y="750" type="line"/>
    </contour>
  </outline>
</glyph>
<glyph name="k" format="2">
  <advance width="530"/>
  <unicode hex="006B"/>
  <outline>
    <contour>
      <point x="45" y="0" type="line"/>
      <point x="175" y="0" type="line"/>
      <point x="175" y="170" type="line"/>
      <point x="225" y="230" type="line"/>
      <point x="375" y="0" type="line"/>
      <point x="525" y="0" type="line"/>
      <point x="315" y="320" type="line"/>
      <point x="495" y="520" type="line"/>
      <point x="345" y="520" type="line"/>
      <point x="175" y="340" type="line"/>
      <point x="175" y="750" type="line"/>
      <point x="45" y="750" type="line"/>
    </contour>
  </outline>
</glyph>
<glyph name="m" format="2">
  <advance width="840"/>
  <unicode hex="006D"/>
  <outline>
    <contour>
      <point x="45" y="0" type="line"/>
      <point x="175" y="0" type="line"/>
      <point x="175" y="334" type="line"/>
      <point x="179" y="357"/>
      <point x="215" y="415"/>
      <point x="275" y="415" type="curve" smooth="yes"/>
      <point x="335" y="415"/>
      <point x="355" y="380"/>
      <point x="355" y="335" type="curve" smooth="yes"/>
      <point x="355" y="0" type="line"/>
      <point x="485" y="0" type="line"/>
      <point x="485" y="334" type="line"/>
      <point x="489" y="357"/>
      <point x="525" y="415"/>
      <point x="585" y="415" type="curve" smooth="yes"/>
      <point x="645" y="415"/>
      <point x="665" y="380"/>
      <point x="665" y="335" type="curve" smooth="yes"/>
      <point x="665" y="0" type="line"/>
      <point x="795" y="0" type="line"/>
      <point x="795" y="360" type="line" smooth="yes"/>
      <point x="795" y="470"/>
      <point x="715" y="530"/>
      <point x="625" y="530" type="curve" smooth="yes"/>
      <point x="526" y="530"/>
      <point x="495" y="494"/>
      <point x="463" y="449" type="curve"/>
      <point x="437" y="497"/>
      <point x="382" y="530"/>
      <point x="315" y="530" type="curve" smooth="yes"/>
      <point x="226" y="530"/>
      <point x="193" y="476"/>
      <point x="175" y="446" type="curve"/>
      <point x="175" y="520" type="line"/>
      <point x="45" y="520" type="line"/>
    </contour>
  </outline>
</glyph>
<glyph name="o" format="2">
  <advance width="590"/>
  <unicode hex="006F"/>
  <outline>
    <contour>
      <point x="295" y="102" type="curve" smooth="yes"/>
      <point x="220" y="102"/>
      <point x="162" y="155"/>
      <point x="162" y="260" type="curve" smooth="yes"/>
      <point x="162" y="365"/>
      <point x="220" y="418"/>
      <point x="295" y="418" type="curve" smooth="yes"/>
      <point x="370" y="418"/>
      <point x="428" y="365"/>
      <point x="428" y="260" type="curve" smooth="yes"/>
      <point x="428" y="155"/>
      <point x="370" y="102"/>
    </contour>
    <contour>
      <point x="295" y="-10" type="curve" smooth="yes"/>
      <point x="400" y="-10"/>
      <point x="560" y="45"/>
      <point x="560" y="260" type="curve" smooth="yes"/>
      <point x="560" y="475"/>
      <point x="400" y="530"/>
      <point x="295" y="530" type="curve" smooth="yes"/>
      <point x="190" y="530"/>
      <point x="30" y="475"/>
      <point x="30" y="260" type="curve" smooth="yes"/>
      <point x="30" y="45"/>
      <point x="190" y="-10"/>
    </contour>
  </outline>
</glyph>
<glyph name="q" format="2">
  <advance width="600"/>
  <unicode hex="0071"/>
  <outline>
    <contour>
      <point x="425" y="178" type="line"/>
      <point x="410" y="153"/>
      <point x="370" y="104"/>
      <point x="300" y="104" type="curve" smooth="yes"/>
      <point x="225" y="104"/>
      <point x="162" y="150"/>
      <point x="162" y="260" type="curve" smooth="yes"/>
      <point x="162" y="370"/>
      <point x="225" y="416"/>
      <point x="300" y="416" type="curve" smooth="yes"/>
      <point x="369" y="416"/>
      <point x="410" y="367"/>
      <point x="425" y="342" type="curve"/>
    </contour>
    <contour>
      <point x="425" y="-230" type="line"/>
      <point x="555" y="-230" type="line"/>
      <point x="555" y="520" type="line"/>
      <point x="425" y="520" type="line"/>
      <point x="425" y="460" type="line"/>
      <point x="400" y="490"/>
      <point x="360" y="530"/>
      <point x="265" y="530" type="curve" smooth="yes"/>
      <point x="160" y="530"/>
      <point x="30" y="450"/>
      <point x="30" y="260" type="curve" smooth="yes"/>
      <point x="30" y="70"/>
      <point x="160" y="-10"/>
      <point x="265" y="-10" type="curve" smooth="yes"/>
      <point x="360" y="-10"/>
      <point x="400" y="30"/>
      <point x="425" y="60" type="curve"/>
    </contour>
  </outline>
</glyph>
<glyph name="r" format="2">
  <advance width="390"/>
  <unicode hex="0072"/>
  <outline>
    <contour>
      <point x="45" y="0" type="line"/>
      <point x="175" y="0" type="line"/>
      <point x="175" y="326" type="line"/>
      <point x="179" y="349"/>
      <point x="211" y="409"/>
      <point x="261" y="409" type="curve" smooth="yes"/>
      <point x="295" y="409"/>
      <point x="313" y="394"/>
      <point x="327" y="383" type="curve"/>
      <point x="375" y="497" type="line"/>
      <point x="356" y="514"/>
      <point x="329" y="527"/>
      <point x="290" y="527" type="curve" smooth="yes"/>
      <point x="220" y="527"/>
      <point x="190" y="481"/>
      <point x="175" y="451" type="curve"/>
      <point x="175" y="520" type="line"/>
      <point x="45" y="520" type="line"/>
    </contour>
  </outline>
</glyph>
<glyph name="s" format="2">
  <advance width="515"/>
  <unicode hex="0073"/>
  <outline>
    <contour>
      <point x="23" y="113" type="line"/>
      <point x="50" y="49"/>
      <point x="136" y="-10"/>
      <point x="263" y="-10" type="curve" smooth="yes"/>
      <point x="383" y="-10"/>
      <point x="490" y="51"/>
      <point x="490" y="157" type="curve" smooth="yes"/>
      <point x="490" y="279"/>
      <point x="361" y="307"/>
      <point x="272" y="323" type="curve" smooth="yes"/>
      <point x="196" y="337"/>
      <point x="180" y="353"/>
      <point x="180" y="381" type="curve" smooth="yes"/>
      <point x="180" y="403"/>
      <point x="210" y="429"/>
      <point x="262" y="429" type="curve" smooth="yes"/>
      <point x="308" y="429"/>
      <point x="347" y="405"/>
      <point x="363" y="372" type="curve"/>
      <point x="469" y="424" type="line"/>
      <point x="444" y="481"/>
      <point x="368" y="530"/>
      <point x="257" y="530" type="curve" smooth="yes"/>
      <point x="141" y="530"/>
      <point x="45" y="467"/>
      <point x="45" y="377" type="curve" smooth="yes"/>
      <point x="45" y="262"/>
      <point x="141" y="230"/>
      <point x="243" y="212" type="curve" smooth="yes"/>
      <point x="332" y="196"/>
      <point x="352" y="175"/>
      <point x="352" y="146" type="curve" smooth="yes"/>
      <point x="352" y="115"/>
      <point x="302" y="92"/>
      <point x="262" y="92" type="curve" smooth="yes"/>
      <point x="208" y="92"/>
      <point x="157" y="115"/>
      <point x="130" y="165" type="curve"/>
    </contour>
  </outline>
</glyph>
<glyph name="t" format="2">
  <advance width="400"/>
  <unicode hex="0074"/>
  <outline>
    <contour>
      <point x="15" y="415" type="line"/>
      <point x="85" y="415" type="line"/>
      <point x="85" y="123" type="line" smooth="yes"/>
      <point x="85" y="29"/>
      <point x="169" y="-12"/>
      <point x="236" y="-12" type="curve" smooth="yes"/>
      <point x="297" y="-12"/>
      <point x="340" y="6"/>
      <point x="379" y="37" type="curve"/>
      <point x="353" y="133" type="line"/>
      <point x="335" y="120"/>
      <point x="302" y="99"/>
      <point x="270" y="99" type="curve" smooth="yes"/>
      <point x="236" y="99"/>
      <point x="215" y="120"/>
      <point x="215" y="140" type="curve" smooth="yes"/>
      <point x="215" y="415" type="line"/>
      <point x="350" y="415" type="line"/>
      <point x="350" y="520" type="line"/>
      <point x="215" y="520" type="line"/>
      <point x="215" y="676" type="line"/>
      <point x="85" y="641" type="line"/>
      <point x="85" y="520" type="line"/>
      <point x="15" y="520" type="line"/>
    </contour>
  </outline>
</glyph>
<glyph name="u" format="2">
  <advance width="550"/>
  <unicode hex="0075"/>
  <outline>
    <contour>
      <point x="375" y="0" type="line"/>
      <point x="505" y="0" type="line"/>
      <point x="505" y="520" type="line"/>
      <point x="375" y="520" type="line"/>
      <point x="375" y="186" type="line"/>
      <point x="371" y="163"/>
      <point x="320" y="105"/>
      <point x="260" y="105" type="curve" smooth="yes"/>
      <point x="205" y="105"/>
      <point x="175" y="135"/>
      <point x="175" y="180" type="curve" smooth="yes"/>
      <point x="175" y="520" type="line"/>
      <point x="45" y="520" type="line"/>
      <point x="45" y="160" type="line" smooth="yes"/>
      <point x="45" y="50"/>
      <point x="125" y="-10"/>
      <point x="215" y="-10" type="curve" smooth="yes"/>
      <point x="314" y="-10"/>
      <point x="355" y="44"/>
      <point x="375" y="74" type="curve"/>
    </contour>
  </outline>
</glyph>
<glyph name="v" format="2">
  <advance width="530"/>
  <unicode hex="0076"/>
  <outline>
    <contour>
      <point x="195" y="0" type="line"/>
      <point x="335" y="0" type="line"/>
      <point x="515" y="520" type="line"/>
      <point x="379" y="520" type="line"/>
      <point x="283" y="223" type="line"/>
      <point x="265" y="138" type="line"/>
      <point x="247" y="223" type="line"/>
      <point x="151" y="520" type="line"/>
      <point x="15" y="520" type="line"/>
    </contour>
  </outline>
</glyph>
<glyph name="w" format="2">
  <advance width="800"/>
  <unicode hex="0077"/>
  <outline>
    <contour>
      <point x="178" y="0" type="line"/>
      <point x="292" y="0" type="line"/>
      <point x="390" y="303" type="line"/>
      <point x="400" y="352" type="line"/>
      <point x="410" y="303" type="line"/>
      <point x="508" y="0" type="line"/>
      <point x="622" y="0" type="line"/>
      <point x="785" y="520" type="line"/>
      <point x="648" y="520" type="line"/>
      <point x="564" y="231" type="line"/>
      <point x="555" y="183" type="line"/>
      <point x="545" y="231" type="line"/>
      <point x="457" y="520" type="line"/>
      <point x="343" y="520" type="line"/>
      <point x="255" y="231" type="line"/>
      <point x="245" y="183" type="line"/>
      <point x="236" y="231" type="line"/>
      <point x="152" y="520" type="line"/>
      <point x="15" y="520" type="line"/>
    </contour>
  </outline>
</glyph>
<glyph name="x" format="2">
  <advance width="510"/>
  <unicode hex="0078"/>
  <outline>
    <contour>
      <point x="5" y="0" type="line"/>
      <point x="145" y="0" type="line"/>
      <point x="242" y="149" type="line"/>
      <point x="255" y="178" type="line"/>
      <point x="269" y="149" type="line"/>
      <point x="365" y="0" type="line"/>
      <point x="505" y="0" type="line"/>
      <point x="325" y="275" type="line"/>
      <point x="485" y="520" type="line"/>
      <point x="345" y="520" type="line"/>
      <point x="264" y="394" type="line"/>
      <point x="255" y="372" type="line"/>
      <point x="246" y="394" type="line"/>
      <point x="165" y="520" type="line"/>
      <point x="25" y="520" type="line"/>
      <point x="185" y="275" type="line"/>
    </contour>
  </outline>
</glyph>
<glyph name="y" format="2">
  <advance width="540"/>
  <unicode hex="0079"/>
  <outline>
    <contour>
      <point x="34" y="-200" type="line"/>
      <point x="59" y="-218"/>
      <point x="98" y="-235"/>
      <point x="151" y="-235" type="curve" smooth="yes"/>
      <point x="219" y="-235"/>
      <point x="269" y="-196"/>
      <point x="296" y="-120" type="curve" smooth="yes"/>
      <point x="525" y="520" type="line"/>
      <point x="388" y="520" type="line"/>
      <point x="282" y="203" type="line"/>
      <point x="269" y="149" type="line"/>
      <point x="256" y="203" type="line"/>
      <point x="152" y="520" type="line"/>
      <point x="15" y="520" type="line"/>
      <point x="207" y="-12" type="line"/>
      <point x="179" y="-92" type="line" smooth="yes"/>
      <point x="168" y="-123"/>
      <point x="148" y="-133"/>
      <point x="128" y="-133" type="curve" smooth="yes"/>
      <point x="95" y="-133"/>
      <point x="72" y="-113"/>
      <point x="72" y="-113" type="curve"/>
    </contour>
  </outline>
</glyph>
<glyph name="z" format="2">
  <advance width="500"/>
  <unicode hex="007A"/>
  <outline>
    <contour>
      <point x="35" y="0" type="line"/>
      <point x="465" y="0" type="line"/>
      <point x="465" y="105" type="line"/>
      <point x="200" y="105" type="line"/>
      <point x="465" y="410" type="line"/>
      <point x="465" y="520" type="line"/>
      <point x="35" y="520" type="line"/>
      <point x="35" y="415" type="line"/>
      <point x="310" y="415" type="line"/>
      <point x="35" y="110" type="line"/>
    </contour>
  </outline>
</glyph>
<glyph name="braceleft" format="2">
  <advance width="360"/>
  <unicode hex="007B"/>
  <outline>
    <contour>
      <point x="25" y="360" type="line"/>
      <point x="25" y="320" type="line"/>
      <point x="85" y="290" type="line"/>
      <point x="85" y="200"/>
      <point x="135" y="-20"/>
      <point x="135" y="-20" type="curve"/>
      <point x="175" y="-20"/>
      <point x="305" y="-110"/>
      <point x="305" y="-110" type="curve"/>
      <point x="335" y="-70" type="line"/>
      <point x="235" y="10" type="line"/>
      <point x="235" y="10"/>
      <point x="195" y="170"/>
      <point x="195" y="300" type="curve"/>
      <point x="135" y="340" type="line"/>
      <point x="195" y="380" type="line"/>
      <point x="195" y="510"/>
      <point x="235" y="670"/>
      <point x="235" y="670" type="curve"/>
      <point x="335" y="750" type="line"/>
      <point x="305" y="790" type="line"/>
      <point x="305" y="790"/>
      <point x="175" y="700"/>
      <point x="135" y="700" type="curve"/>
      <point x="135" y="700"/>
      <point x="85" y="490"/>
      <point x="85" y="400" type="curve"/>
    </contour>
  </outline>
</glyph>
<glyph name="bar" format="2">
  <advance width="200"/>
  <unicode hex="007C"/>
  <outline>
    <contour>
      <point x="55" y="-80" type="line"/>
      <point x="145" y="-80" type="line"/>
      <point x="145" y="800" type="line"/>
      <point x="55" y="800" type="line"/>
    </contour>
  </outline>
</glyph>
<glyph name="braceright" format="2">
  <advance width="360"/>
  <unicode hex="007D"/>
  <outline>
    <contour>
      <point x="55" y="790" type="curve"/>
      <point x="25" y="750" type="line"/>
      <point x="125" y="670" type="line"/>
      <point x="125" y="670"/>
      <point x="165" y="510"/>
      <point x="165" y="380" type="curve"/>
      <point x="225" y="340" type="line"/>
      <point x="165" y="300" type="line"/>
      <point x="165" y="170"/>
      <point x="125" y="10"/>
      <point x="125" y="10" type="curve"/>
      <point x="25" y="-70" type="line"/>
      <point x="55" y="-110" type="line"/>
      <point x="55" y="-110"/>
      <point x="185" y="-20"/>
      <point x="225" y="-20" type="curve"/>
      <point x="225" y="-20"/>
      <point x="275" y="200"/>
      <point x="275" y="290" type="curve"/>
      <point x="335" y="320" type="line"/>
      <point x="335" y="360" type="line"/>
      <point x="275" y="400" type="line"/>
      <point x="275" y="490"/>
      <point x="225" y="700"/>
      <point x="225" y="700" type="curve"/>
      <point x="185" y="700"/>
      <point x="55" y="790"/>
    </contour>
  </outline>
</glyph>
<glyph name="exclamdown" format="2">
  <advance width="280"/>
  <unicode hex="00A1"/>
  <outline>
    <contour>
      <point x="65" y="440" type="line"/>
      <point x="215" y="440" type="line"/>
      <point x="215" y="580" type="line"/>
      <point x="65" y="580" type="line"/>
    </contour>
    <contour>
      <point x="65" y="-140" type="line"/>
      <point x="215" y="-140" type="line"/>
      <point x="215" y="100" type="line"/>
      <point x="165" y="370" type="line"/>
      <point x="115" y="370" type="line"/>
      <point x="65" y="100" type="line"/>
    </contour>
  </outline>
</glyph>
<glyph name="cent" format="2">
  <advance width="555"/>
  <unicode hex="00A2"/>
  <outline>
    <contour>
      <point x="230" y="-140" type="line"/>
      <point x="350" y="-140" type="line"/>
      <point x="340" y="-6" type="line"/>
      <point x="422" y="6"/>
      <point x="497" y="50"/>
      <point x="526" y="150" type="curve"/>
      <point x="412" y="190" type="line"/>
      <point x="395" y="140"/>
      <point x="355" y="102"/>
      <point x="290" y="102" type="curve" smooth="yes"/>
      <point x="220" y="102"/>
      <point x="160" y="155"/>
      <point x="160" y="260" type="curve" smooth="yes"/>
      <point x="160" y="365"/>
      <point x="220" y="418"/>
      <point x="290" y="418" type="curve" smooth="yes"/>
      <point x="355" y="418"/>
      <point x="395" y="380"/>
      <point x="412" y="330" type="curve"/>
      <point x="526" y="370" type="line"/>
      <point x="497" y="469"/>
      <point x="422" y="513"/>
      <point x="340" y="526" type="curve"/>
      <point x="350" y="660" type="line"/>
      <point x="230" y="660" type="line"/>
      <point x="239" y="525" type="line"/>
      <point x="143" y="509"/>
      <point x="30" y="441"/>
      <point x="30" y="260" type="curve" smooth="yes"/>
      <point x="30" y="77"/>
      <point x="144" y="10"/>
      <point x="239" y="-5" type="curve"/>
    </contour>
  </outline>
</glyph>
<glyph name="sterling" format="2">
  <advance width="620"/>
  <unicode hex="00A3"/>
  <outline>
    <contour>
      <point x="35" y="0" type="line"/>
      <point x="395" y="0" type="line" smooth="yes"/>
      <point x="548" y="0"/>
      <point x="572" y="106"/>
      <point x="587" y="173" type="curve"/>
      <point x="472" y="230" type="line"/>
      <point x="452" y="163"/>
      <point x="438" y="125"/>
      <point x="366" y="125" type="curve" smooth="yes"/>
      <point x="179" y="125" type="line"/>
      <point x="179" y="125"/>
      <point x="241" y="211"/>
      <point x="241" y="298" type="curve"/>
      <point x="371" y="298" type="line"/>
      <point x="371" y="413" type="line"/>
      <point x="232" y="413" type="line"/>
      <point x="229" y="436"/>
      <point x="193" y="466"/>
      <point x="193" y="518" type="curve" smooth="yes"/>
      <point x="193" y="557"/>
      <point x="232" y="614"/>
      <point x="318" y="614" type="curve" smooth="yes"/>
      <point x="404" y="614"/>
      <point x="450" y="547"/>
      <point x="455" y="499" type="curve"/>
      <point x="572" y="547" type="line"/>
      <point x="563" y="624"/>
      <point x="491" y="730"/>
      <point x="318" y="730" type="curve" smooth="yes"/>
      <point x="145" y="730"/>
      <point x="54" y="624"/>
      <point x="54" y="528" type="curve" smooth="yes"/>
      <point x="54" y="461"/>
      <point x="83" y="442"/>
      <point x="92" y="413" type="curve"/>
      <point x="44" y="413" type="line"/>
      <point x="44" y="298" type="line"/>
      <point x="112" y="298" type="line"/>
      <point x="112" y="202"/>
      <point x="35" y="115"/>
      <point x="35" y="115" type="curve"/>
    </contour>
  </outline>
</glyph>
<glyph name="currency" format="2">
  <advance width="450"/>
  <unicode hex="00A4"/>
  <outline>
    <contour>
      <point x="85" y="100" type="line"/>
      <point x="125" y="140" type="line"/>
      <point x="125" y="140"/>
      <point x="155" y="110"/>
      <point x="225" y="110" type="curve" smooth="yes"/>
      <point x="295" y="110"/>
      <point x="325" y="140"/>
      <point x="325" y="140" type="curve"/>
      <point x="365" y="100" type="line"/>
      <point x="405" y="140" type="line"/>
      <point x="365" y="180" type="line"/>
      <point x="365" y="180"/>
      <point x="405" y="220"/>
      <point x="405" y="290" type="curve" smooth="yes"/>
      <point x="405" y="360"/>
      <point x="365" y="400"/>
      <point x="365" y="400" type="curve"/>
      <point x="405" y="440" type="line"/>
      <point x="365" y="480" type="line"/>
      <point x="325" y="440" type="line"/>
      <point x="325" y="440"/>
      <point x="295" y="470"/>
      <point x="225" y="470" type="curve" smooth="yes"/>
      <point x="155" y="470"/>
      <point x="125" y="440"/>
      <point x="125" y="440" type="curve"/>
      <point x="85" y="480" type="line"/>
      <point x="45" y="440" type="line"/>
      <point x="85" y="400" type="line"/>
      <point x="85" y="400"/>
      <point x="45" y="370"/>
      <point x="45" y="290" type="curve" smooth="yes"/>
      <point x="45" y="220"/>
      <point x="85" y="180"/>
      <point x="85" y="180" type="curve"/>
      <point x="45" y="140" type="line"/>
    </contour>
    <contour>
      <point x="105" y="290" type="curve" smooth="yes"/>
      <point x="105" y="356"/>
      <point x="159" y="410"/>
      <point x="225" y="410" type="curve" smooth="yes"/>
      <point x="291" y="410"/>
      <point x="345" y="356"/>
      <point x="345" y="290" type="curve" smooth="yes"/>
      <point x="345" y="224"/>
      <point x="291" y="170"/>
      <point x="225" y="170" type="curve" smooth="yes"/>
      <point x="159" y="170"/>
      <point x="105" y="224"/>
    </contour>
  </outline>
</glyph>
<glyph name="yen" format="2">
  <advance width="663"/>
  <unicode hex="00A5"/>
  <outline>
    <contour>
      <point x="120" y="192" type="line"/>
      <point x="264" y="202" type="line"/>
      <point x="264" y="0" type="line"/>
      <point x="399" y="0" type="line"/>
      <point x="399" y="202" type="line"/>
      <point x="543" y="192" type="line"/>
      <point x="543" y="307" type="line"/>
      <point x="399" y="298" type="line"/>
      <point x="399" y="346" type="line"/>
      <point x="648" y="720" type="line"/>
      <point x="495" y="720" type="line"/>
      <point x="331" y="470" type="line"/>
      <point x="168" y="720" type="line"/>
      <point x="15" y="720" type="line"/>
      <point x="264" y="346" type="line"/>
      <point x="264" y="298" type="line"/>
      <point x="120" y="307" type="line"/>
    </contour>
  </outline>
</glyph>
<glyph name="brokenbar" format="2">
  <advance width="200"/>
  <unicode hex="00A6"/>
  <outline>
    <contour>
      <point x="55" y="-80" type="line"/>
      <point x="145" y="-80" type="line"/>
      <point x="145" y="330" type="line"/>
      <point x="55" y="330" type="line"/>
    </contour>
    <contour>
      <point x="55" y="390" type="line"/>
      <point x="145" y="390" type="line"/>
      <point x="145" y="800" type="line"/>
      <point x="55" y="800" type="line"/>
    </contour>
  </outline>
</glyph>
<glyph name="section" format="2">
  <advance width="645"/>
  <unicode hex="00A7"/>
  <outline>
    <contour>
      <point x="194" y="-76" type="curve"/>
      <point x="80" y="-137" type="line"/>
      <point x="104" y="-193"/>
      <point x="185" y="-278"/>
      <point x="320" y="-278" type="curve" smooth="yes"/>
      <point x="467" y="-278"/>
      <point x="563" y="-186"/>
      <point x="563" y="-66" type="curve" smooth="yes"/>
      <point x="563" y="8"/>
      <point x="494" y="83"/>
      <point x="437" y="98" type="curve"/>
      <point x="509" y="119"/>
      <point x="572" y="201"/>
      <point x="572" y="275" type="curve" smooth="yes"/>
      <point x="572" y="428"/>
      <point x="464" y="470"/>
      <point x="355" y="501" type="curve" smooth="yes"/>
      <point x="240" y="534"/>
      <point x="224" y="553"/>
      <point x="224" y="605" type="curve" smooth="yes"/>
      <point x="224" y="645"/>
      <point x="262" y="690"/>
      <point x="323" y="690" type="curve" smooth="yes"/>
      <point x="393" y="690"/>
      <point x="417" y="651"/>
      <point x="443" y="607" type="curve"/>
      <point x="557" y="668" type="line"/>
      <point x="533" y="724"/>
      <point x="468" y="810"/>
      <point x="326" y="810" type="curve" smooth="yes"/>
      <point x="174" y="810"/>
      <point x="84" y="717"/>
      <point x="84" y="597" type="curve" smooth="yes"/>
      <point x="84" y="523"/>
      <point x="148" y="442"/>
      <point x="205" y="427" type="curve"/>
      <point x="132" y="406"/>
      <point x="75" y="330"/>
      <point x="75" y="256" type="curve" smooth="yes"/>
      <point x="75" y="103"/>
      <point x="182" y="62"/>
      <point x="291" y="31" type="curve" smooth="yes"/>
      <point x="406" y="-2"/>
      <point x="423" y="-22"/>
      <point x="423" y="-74" type="curve" smooth="yes"/>
      <point x="423" y="-114"/>
      <point x="394" y="-158"/>
      <point x="323" y="-158" type="curve" smooth="yes"/>
      <point x="254" y="-158"/>
      <point x="222" y="-120"/>
    </contour>
    <contour>
      <point x="336" y="150" type="curve"/>
      <point x="230" y="176"/>
      <point x="213" y="216"/>
      <point x="213" y="273" type="curve" smooth="yes"/>
      <point x="213" y="316"/>
      <point x="247" y="368"/>
      <point x="310" y="381" type="curve"/>
      <point x="415" y="355"/>
      <point x="434" y="314"/>
      <point x="434" y="258" type="curve" smooth="yes"/>
      <point x="434" y="215"/>
      <point x="407" y="164"/>
    </contour>
  </outline>
</glyph>
<glyph name="copyright" format="2">
  <advance width="840"/>
  <unicode hex="00A9"/>
  <outline>
    <component base="C" xScale="0.7504" yScale="0.7506" xOffset="126" yOffset="95"/>
    <contour>
      <point x="35" y="375" type="curve" smooth="yes"/>
      <point x="35" y="162"/>
      <point x="207" y="-10"/>
      <point x="420" y="-10" type="curve" smooth="yes"/>
      <point x="633" y="-10"/>
      <point x="805" y="162"/>
      <point x="805" y="375" type="curve" smooth="yes"/>
      <point x="805" y="588"/>
      <point x="633" y="760"/>
      <point x="420" y="760" type="curve" smooth="yes"/>
      <point x="207" y="760"/>
      <point x="35" y="588"/>
    </contour>
    <contour>
      <point x="81" y="375" type="curve" smooth="yes"/>
      <point x="81" y="563"/>
      <point x="232" y="715"/>
      <point x="420" y="715" type="curve" smooth="yes"/>
      <point x="608" y="715"/>
      <point x="760" y="563"/>
      <point x="760" y="375" type="curve" smooth="yes"/>
      <point x="760" y="187"/>
      <point x="608" y="36"/>
      <point x="420" y="36" type="curve" smooth="yes"/>
      <point x="232" y="36"/>
      <point x="81" y="187"/>
    </contour>
  </outline>
</glyph>
<glyph name="guillemotleft" format="2">
  <advance width="570"/>
  <unicode hex="00AB"/>
  <outline>
    <contour>
      <point x="45" y="270" type="line"/>
      <point x="295" y="70" type="line"/>
      <point x="335" y="110" type="line"/>
      <point x="165" y="300" type="line"/>
      <point x="335" y="480" type="line"/>
      <point x="295" y="520" type="line"/>
      <point x="45" y="320" type="line"/>
    </contour>
    <contour>
      <point x="245" y="270" type="line"/>
      <point x="495" y="70" type="line"/>
      <point x="535" y="110" type="line"/>
      <point x="365" y="300" type="line"/>
      <point x="535" y="480" type="line"/>
      <point x="495" y="520" type="line"/>
      <point x="245" y="320" type="line"/>
    </contour>
  </outline>
</glyph>
<glyph name="logicalnot" format="2">
  <advance width="430"/>
  <unicode hex="00AC"/>
  <outline>
    <contour>
      <point x="45" y="270" type="line"/>
      <point x="295" y="270" type="line"/>
      <point x="295" y="160" type="line"/>
      <point x="385" y="160" type="line"/>
      <point x="385" y="360" type="line"/>
      <point x="45" y="360" type="line"/>
    </contour>
  </outline>
</glyph>
<glyph name="registered" format="2">
  <advance width="840"/>
  <unicode hex="00AE"/>
  <outline>
    <component base="R" xScale="0.7" yScale="0.7" xOffset="180" yOffset="112"/>
    <contour>
      <point x="35" y="375" type="curve" smooth="yes"/>
      <point x="35" y="162"/>
      <point x="207" y="-10"/>
      <point x="420" y="-10" type="curve" smooth="yes"/>
      <point x="633" y="-10"/>
      <point x="805" y="162"/>
      <point x="805" y="375" type="curve" smooth="yes"/>
      <point x="805" y="588"/>
      <point x="633" y="760"/>
      <point x="420" y="760" type="curve" smooth="yes"/>
      <point x="207" y="760"/>
      <point x="35" y="588"/>
    </contour>
    <contour>
      <point x="81" y="375" type="curve" smooth="yes"/>
      <point x="81" y="563"/>
      <point x="232" y="715"/>
      <point x="420" y="715" type="curve" smooth="yes"/>
      <point x="608" y="715"/>
      <point x="760" y="563"/>
      <point x="760" y="375" type="curve" smooth="yes"/>
      <point x="760" y="187"/>
      <point x="608" y="36"/>
      <point x="420" y="36" type="curve" smooth="yes"/>
      <point x="232" y="36"/>
      <point x="81" y="187"/>
    </contour>
  </outline>
</glyph>
<glyph name="macron" format="2">
  <advance width="370"/>
  <unicode hex="00AF"/>
  <outline>
    <contour>
      <point x="25" y="670" type="line"/>
      <point x="345" y="670" type="line"/>
      <point x="345" y="750" type="line"/>
      <point x="25" y="750" type="line"/>
    </contour>
  </outline>
</glyph>
<glyph name="degree" format="2">
  <advance width="470"/>
  <unicode hex="00B0"/>
  <outline>
    <contour>
      <point x="235" y="484" type="curve" smooth="yes"/>
      <point x="183" y="484"/>
      <point x="140" y="527"/>
      <point x="140" y="580" type="curve" smooth="yes"/>
      <point x="140" y="632"/>
      <point x="183" y="675"/>
      <point x="235" y="675" type="curve" smooth="yes"/>
      <point x="288" y="675"/>
      <point x="331" y="632"/>
      <point x="331" y="580" type="curve" smooth="yes"/>
      <point x="331" y="527"/>
      <point x="288" y="484"/>
    </contour>
    <contour>
      <point x="235" y="400" type="curve" smooth="yes"/>
      <point x="334" y="400"/>
      <point x="415" y="481"/>
      <point x="415" y="580" type="curve" smooth="yes"/>
      <point x="415" y="679"/>
      <point x="334" y="760"/>
      <point x="235" y="760" type="curve" smooth="yes"/>
      <point x="136" y="760"/>
      <point x="55" y="679"/>
      <point x="55" y="580" type="curve" smooth="yes"/>
      <point x="55" y="481"/>
      <point x="136" y="400"/>
    </contour>
  </outline>
</glyph>
<glyph name="plusminus" format="2">
  <advance width="470"/>
  <unicode hex="00B1"/>
  <outline>
    <component base="plus" xOffset="5"/>
    <contour>
      <point x="25" y="0" type="line"/>
      <point x="445" y="0" type="line"/>
      <point x="445" y="80" type="line"/>
      <point x="25" y="80" type="line"/>
    </contour>
  </outline>
</glyph>
<glyph name="mu" format="2">
  <advance width="550"/>
  <unicode hex="00B5"/>
  <outline>
    <contour>
      <point x="5" y="-110" type="curve"/>
      <point x="95" y="-180" type="line"/>
      <point x="132" y="-114"/>
      <point x="145" y="-49"/>
      <point x="153" y="0" type="curve"/>
      <point x="172" y="-6"/>
      <point x="193" y="-10"/>
      <point x="215" y="-10" type="curve" smooth="yes"/>
      <point x="314" y="-10"/>
      <point x="355" y="44"/>
      <point x="375" y="74" type="curve"/>
      <point x="375" y="0" type="line"/>
      <point x="505" y="0" type="line"/>
      <point x="505" y="520" type="line"/>
      <point x="375" y="520" type="line"/>
      <point x="375" y="186" type="line"/>
      <point x="371" y="163"/>
      <point x="320" y="105"/>
      <point x="260" y="105" type="curve" smooth="yes"/>
      <point x="205" y="105"/>
      <point x="175" y="135"/>
      <point x="175" y="180" type="curve" smooth="yes"/>
      <point x="175" y="520" type="line"/>
      <point x="45" y="520" type="line"/>
      <point x="45" y="160" type="line" smooth="yes"/>
      <point x="45" y="105"/>
      <point x="35" y="-40"/>
    </contour>
  </outline>
</glyph>
<glyph name="paragraph" format="2">
  <advance width="620"/>
  <unicode hex="00B6"/>
  <outline>
    <contour>
      <point x="355" y="-120" type="line"/>
      <point x="495" y="-120" type="line"/>
      <point x="495" y="630" type="line"/>
      <point x="585" y="630" type="line"/>
      <point x="585" y="750" type="line"/>
      <point x="245" y="750" type="line" smooth="yes"/>
      <point x="145" y="750"/>
      <point x="35" y="650"/>
      <point x="35" y="525" type="curve" smooth="yes"/>
      <point x="35" y="400"/>
      <point x="145" y="300"/>
      <point x="245" y="300" type="curve" smooth="yes"/>
      <point x="355" y="300" type="line"/>
    </contour>
  </outline>
</glyph>
<glyph name="periodcentered" format="2">
  <advance width="260"/>
  <unicode hex="00B7"/>
  <outline>
    <contour>
      <point x="55" y="240" type="line"/>
      <point x="195" y="240" type="line"/>
      <point x="195" y="380" type="line"/>
      <point x="55" y="380" type="line"/>
    </contour>
  </outline>
</glyph>
<glyph name="ordmasculine" format="2">
  <advance width="390"/>
  <unicode hex="00BA"/>
  <outline>
    <component base="o" xScale="0.6" yScale="0.6" xOffset="25" yOffset="435"/>
    <contour>
      <point x="45" y="340" type="line"/>
      <point x="345" y="340" type="line"/>
      <point x="345" y="390" type="line"/>
      <point x="45" y="390" type="line"/>
    </contour>
  </outline>
</glyph>
<glyph name="guillemotright" format="2">
  <advance width="570"/>
  <unicode hex="00BB"/>
  <outline>
    <contour>
      <point x="75" y="70" type="line"/>
      <point x="325" y="270" type="line"/>
      <point x="325" y="320" type="line"/>
      <point x="75" y="520" type="line"/>
      <point x="35" y="480" type="line"/>
      <point x="205" y="300" type="line"/>
      <point x="35" y="110" type="line"/>
    </contour>
    <contour>
      <point x="275" y="70" type="line"/>
      <point x="525" y="270" type="line"/>
      <point x="525" y="320" type="line"/>
      <point x="275" y="520" type="line"/>
      <point x="235" y="480" type="line"/>
      <point x="405" y="300" type="line"/>
      <point x="235" y="110" type="line"/>
    </contour>
  </outline>
</glyph>
<glyph name="onequarter" format="2">
  <advance width="690"/>
  <unicode hex="00BC"/>
  <outline>
    <component base="one" xScale="0.6" yScale="0.6" xOffset="-40" yOffset="300"/>
    <component base="four" xScale="0.6" yScale="0.6" xOffset="285"/>
    <contour>
      <point x="85" y="100" type="line"/>
      <point x="145" y="100" type="line"/>
      <point x="565" y="670" type="line"/>
      <point x="505" y="670" type="line"/>
    </contour>
  </outline>
</glyph>
<glyph name="onehalf" format="2">
  <advance width="750"/>
  <unicode hex="00BD"/>
  <outline>
    <component base="one" xScale="0.6" yScale="0.6" xOffset="-40" yOffset="300"/>
    <component base="two" xScale="0.6" yScale="0.6" xOffset="345"/>
    <contour>
      <point x="85" y="100" type="line"/>
      <point x="145" y="100" type="line"/>
      <point x="565" y="670" type="line"/>
      <point x="505" y="670" type="line"/>
    </contour>
  </outline>
</glyph>
<glyph name="threequarters" format="2">
  <advance width="810"/>
  <unicode hex="00BE"/>
  <outline>
    <component base="three" xScale="0.6" yScale="0.6" xOffset="5" yOffset="300"/>
    <component base="four" xScale="0.6" yScale="0.6" xOffset="405"/>
    <contour>
      <point x="207" y="100" type="line"/>
      <point x="267" y="100" type="line"/>
      <point x="687" y="670" type="line"/>
      <point x="627" y="670" type="line"/>
    </contour>
  </outline>
</glyph>
<glyph name="questiondown" format="2">
  <advance width="540"/>
  <unicode hex="00BF"/>
  <outline>
    <contour>
      <point x="226" y="440" type="line"/>
      <point x="366" y="440" type="line"/>
      <point x="366" y="580" type="line"/>
      <point x="226" y="580" type="line"/>
    </contour>
    <contour>
      <point x="41" y="57" type="curve" smooth="yes"/>
      <point x="41" y="-39"/>
      <point x="108" y="-150"/>
      <point x="271" y="-150" type="curve" smooth="yes"/>
      <point x="434" y="-150"/>
      <point x="487" y="-54"/>
      <point x="516" y="23" type="curve"/>
      <point x="411" y="71" type="line"/>
      <point x="396" y="38"/>
      <point x="362" y="-34"/>
      <point x="271" y="-34" type="curve" smooth="yes"/>
      <point x="190" y="-34"/>
      <point x="171" y="28"/>
      <point x="171" y="66" type="curve" smooth="yes"/>
      <point x="171" y="105"/>
      <point x="186" y="138"/>
      <point x="243" y="177" type="curve"/>
      <point x="311" y="215"/>
      <point x="376" y="270"/>
      <point x="385" y="311" type="curve"/>
      <point x="287" y="369" type="line"/>
      <point x="265" y="324"/>
      <point x="220" y="299"/>
      <point x="167" y="263" type="curve"/>
      <point x="80" y="215"/>
      <point x="41" y="138"/>
    </contour>
  </outline>
</glyph>
<glyph name="Agrave" format="2">
  <advance width="701"/>
  <unicode hex="00C0"/>
  <outline>
    <component base="A"/>
    <contour>
      <point x="230" y="880" type="line"/>
      <point x="320" y="760" type="line"/>
      <point x="420" y="780" type="line"/>
      <point x="370" y="880" type="line"/>
    </contour>
  </outline>
</glyph>
<glyph name="Aacute" format="2">
  <advance width="701"/>
  <unicode hex="00C1"/>
  <outline>
    <component base="A"/>
    <contour>
      <point x="280" y="780" type="line"/>
      <point x="380" y="760" type="line"/>
      <point x="470" y="880" type="line"/>
      <point x="330" y="880" type="line"/>
    </contour>
  </outline>
</glyph>
<glyph name="Acircumflex" format="2">
  <advance width="701"/>
  <unicode hex="00C2"/>
  <outline>
    <component base="A"/>
    <contour>
      <point x="230" y="780" type="line"/>
      <point x="300" y="750" type="line"/>
      <point x="350" y="810" type="line"/>
      <point x="400" y="750" type="line"/>
      <point x="470" y="780" type="line"/>
      <point x="380" y="890" type="line"/>
      <point x="320" y="890" type="line"/>
    </contour>
  </outline>
</glyph>
<glyph name="Atilde" format="2">
  <advance width="701"/>
  <unicode hex="00C3"/>
  <outline>
    <component base="A"/>
    <contour>
      <point x="171" y="798" type="curve"/>
      <point x="216" y="744" type="line"/>
      <point x="216" y="744"/>
      <point x="231" y="809"/>
      <point x="286" y="809" type="curve" smooth="yes"/>
      <point x="346" y="809"/>
      <point x="351" y="749"/>
      <point x="416" y="749" type="curve" smooth="yes"/>
      <point x="476" y="749"/>
      <point x="506" y="789"/>
      <point x="521" y="819" type="curve"/>
      <point x="476" y="873" type="line"/>
      <point x="466" y="853"/>
      <point x="446" y="818"/>
      <point x="411" y="818" type="curve" smooth="yes"/>
      <point x="366" y="818"/>
      <point x="346" y="878"/>
      <point x="281" y="878" type="curve" smooth="yes"/>
      <point x="221" y="878"/>
      <point x="186" y="828"/>
    </contour>
  </outline>
</glyph>
<glyph name="Adieresis" format="2">
  <advance width="701"/>
  <unicode hex="00C4"/>
  <outline>
    <component base="A"/>
    <contour>
      <point x="120" y="730" type="line"/>
      <point x="210" y="730" type="line"/>
      <point x="210" y="820" type="line"/>
      <point x="120" y="820" type="line"/>
    </contour>
    <contour>
      <point x="490" y="730" type="line"/>
      <point x="580" y="730" type="line"/>
      <point x="580" y="820" type="line"/>
      <point x="490" y="820" type="line"/>
    </contour>
  </outline>
</glyph>
<glyph name="Aring" format="2">
  <advance width="701"/>
  <unicode hex="00C5"/>
  <outline>
    <component base="A"/>
    <contour>
      <point x="280" y="820" type="curve" smooth="yes"/>
      <point x="280" y="782"/>
      <point x="312" y="750"/>
      <point x="350" y="750" type="curve" smooth="yes"/>
      <point x="388" y="750"/>
      <point x="420" y="782"/>
      <point x="420" y="820" type="curve" smooth="yes"/>
      <point x="420" y="858"/>
      <point x="388" y="890"/>
      <point x="350" y="890" type="curve" smooth="yes"/>
      <point x="312" y="890"/>
      <point x="280" y="858"/>
    </contour>
    <contour>
      <point x="320" y="820" type="curve" smooth="yes"/>
      <point x="320" y="836"/>
      <point x="334" y="850"/>
      <point x="350" y="850" type="curve" smooth="yes"/>
      <point x="366" y="850"/>
      <point x="380" y="836"/>
      <point x="380" y="820" type="curve" smooth="yes"/>
      <point x="380" y="804"/>
      <point x="366" y="790"/>
      <point x="350" y="790" type="curve" smooth="yes"/>
      <point x="334" y="790"/>
      <point x="320" y="804"/>
    </contour>
  </outline>
</glyph>
<glyph name="AE" format="2">
  <advance width="922"/>
  <unicode hex="00C6"/>
  <outline>
    <contour>
      <point x="5" y="0" type="line"/>
      <point x="159" y="0" type="line"/>
      <point x="239" y="173" type="line"/>
      <point x="389" y="173" type="line"/>
      <point x="389" y="0" type="line"/>
      <point x="870" y="0" type="line"/>
      <point x="870" y="125" type="line"/>
      <point x="523" y="125" type="line"/>
      <point x="523" y="307" type="line"/>
      <point x="828" y="307" type="line"/>
      <point x="828" y="432" type="line"/>
      <point x="523" y="432" type="line"/>
      <point x="523" y="595" type="line"/>
      <point x="860" y="595" type="line"/>
      <point x="860" y="720" type="line"/>
      <point x="341" y="720" type="line"/>
    </contour>
    <contour>
      <point x="298" y="298" type="line"/>
      <point x="378" y="471" type="line"/>
      <point x="389" y="509" type="line"/>
      <point x="389" y="298" type="line"/>
    </contour>
  </outline>
</glyph>
<glyph name="Ccedilla" format="2">
  <advance width="711"/>
  <unicode hex="00C7"/>
  <outline>
    <contour>
      <point x="236" y="-121" type="line"/>
      <point x="260" y="-159"/>
      <point x="318" y="-182"/>
      <point x="376" y="-182" type="curve" smooth="yes"/>
      <point x="433" y="-182"/>
      <point x="510" y="-154"/>
      <point x="510" y="-86" type="curve" smooth="yes"/>
      <point x="510" y="-35"/>
      <point x="468" y="-12"/>
      <point x="446" y="-4" type="curve"/>
      <point x="591" y="18"/>
      <point x="654" y="112"/>
      <point x="680" y="163" type="curve"/>
      <point x="565" y="230" type="line"/>
      <point x="544" y="190"/>
      <point x="491" y="115"/>
      <point x="380" y="115" type="curve" smooth="yes"/>
      <point x="270" y="115"/>
      <point x="185" y="202"/>
      <point x="185" y="360" type="curve" smooth="yes"/>
      <point x="185" y="518"/>
      <point x="270" y="605"/>
      <point x="380" y="605" type="curve" smooth="yes"/>
      <point x="491" y="605"/>
      <point x="546" y="528"/>
      <point x="565" y="490" type="curve"/>
      <point x="680" y="557" type="line"/>
      <point x="651" y="614"/>
      <point x="572" y="730"/>
      <point x="380" y="730" type="curve" smooth="yes"/>
      <point x="188" y="730"/>
      <point x="40" y="605"/>
      <point x="40" y="360" type="curve" smooth="yes"/>
      <point x="40" y="126"/>
      <point x="168" y="1"/>
      <point x="347" y="-10" type="curve"/>
      <point x="376" y="-10"/>
      <point x="428" y="-27"/>
      <point x="428" y="-65" type="curve" smooth="yes"/>
      <point x="428" y="-94"/>
      <point x="404" y="-115"/>
      <point x="371" y="-115" type="curve" smooth="yes"/>
      <point x="337" y="-115"/>
      <point x="312" y="-103"/>
      <point x="299" y="-86" type="curve"/>
    </contour>
  </outline>
</glyph>
<glyph name="Egrave" format="2">
  <advance width="590"/>
  <unicode hex="00C8"/>
  <outline>
    <component base="E"/>
    <contour>
      <point x="180" y="880" type="line"/>
      <point x="270" y="760" type="line"/>
      <point x="370" y="780" type="line"/>
      <point x="320" y="880" type="line"/>
    </contour>
  </outline>
</glyph>
<glyph name="Eacute" format="2">
  <advance width="590"/>
  <unicode hex="00C9"/>
  <outline>
    <component base="E"/>
    <contour>
      <point x="220" y="780" type="line"/>
      <point x="320" y="760" type="line"/>
      <point x="410" y="880" type="line"/>
      <point x="270" y="880" type="line"/>
    </contour>
  </outline>
</glyph>
<glyph name="Ecircumflex" format="2">
  <advance width="590"/>
  <unicode hex="00CA"/>
  <outline>
    <component base="E"/>
    <contour>
      <point x="170" y="780" type="line"/>
      <point x="240" y="750" type="line"/>
      <point x="290" y="810" type="line"/>
      <point x="340" y="750" type="line"/>
      <point x="410" y="780" type="line"/>
      <point x="320" y="890" type="line"/>
      <point x="260" y="890" type="line"/>
    </contour>
  </outline>
</glyph>
<glyph name="Edieresis" format="2">
  <advance width="590"/>
  <unicode hex="00CB"/>
  <outline>
    <component base="E"/>
    <contour>
      <point x="90" y="780" type="line"/>
      <point x="180" y="780" type="line"/>
      <point x="180" y="870" type="line"/>
      <point x="90" y="870" type="line"/>
    </contour>
    <contour>
      <point x="390" y="780" type="line"/>
      <point x="480" y="780" type="line"/>
      <point x="480" y="870" type="line"/>
      <point x="390" y="870" type="line"/>
    </contour>
  </outline>
</glyph>
<glyph name="Igrave" format="2">
  <advance width="265"/>
  <unicode hex="00CC"/>
  <outline>
    <component base="I" xOffset="-5"/>
    <contour>
      <point x="5" y="880" type="line"/>
      <point x="95" y="760" type="line"/>
      <point x="195" y="780" type="line"/>
      <point x="145" y="880" type="line"/>
    </contour>
  </outline>
</glyph>
<glyph name="Iacute" format="2">
  <advance width="265"/>
  <unicode hex="00CD"/>
  <outline>
    <component base="I" xOffset="5"/>
    <contour>
      <point x="70" y="780" type="line"/>
      <point x="170" y="760" type="line"/>
      <point x="260" y="880" type="line"/>
      <point x="120" y="880" type="line"/>
    </contour>
  </outline>
</glyph>
<glyph name="Icircumflex" format="2">
  <advance width="265"/>
  <unicode hex="00CE"/>
  <outline>
    <component base="I"/>
    <contour>
      <point x="12" y="780" type="line"/>
      <point x="82" y="750" type="line"/>
      <point x="132" y="810" type="line"/>
      <point x="182" y="750" type="line"/>
      <point x="252" y="780" type="line"/>
      <point x="162" y="890" type="line"/>
      <point x="102" y="890" type="line"/>
    </contour>
  </outline>
</glyph>
<glyph name="Idieresis" format="2">
  <advance width="265"/>
  <unicode hex="00CF"/>
  <outline>
    <component base="I"/>
    <contour>
      <point x="0" y="780" type="line"/>
      <point x="90" y="780" type="line"/>
      <point x="90" y="870" type="line"/>
      <point x="0" y="870" type="line"/>
    </contour>
    <contour>
      <point x="175" y="780" type="line"/>
      <point x="265" y="780" type="line"/>
      <point x="265" y="870" type="line"/>
      <point x="175" y="870" type="line"/>
    </contour>
  </outline>
</glyph>
<glyph name="Eth" format="2">
  <advance width="710"/>
  <unicode hex="00D0"/>
  <outline>
    <contour>
      <point x="55" y="0" type="line"/>
      <point x="343" y="0" type="line" smooth="yes"/>
      <point x="511" y="0"/>
      <point x="670" y="125"/>
      <point x="670" y="360" type="curve" smooth="yes"/>
      <point x="670" y="595"/>
      <point x="510" y="720"/>
      <point x="343" y="720" type="curve" smooth="yes"/>
      <point x="55" y="720" type="line"/>
      <point x="55" y="432" type="line"/>
      <point x="15" y="432" type="line"/>
      <point x="15" y="317" type="line"/>
      <point x="55" y="317" type="line"/>
    </contour>
    <contour>
      <point x="190" y="125" type="line"/>
      <point x="190" y="317" type="line"/>
      <point x="270" y="317" type="line"/>
      <point x="270" y="432" type="line"/>
      <point x="190" y="432" type="line"/>
      <point x="190" y="595" type="line"/>
      <point x="333" y="595" type="line" smooth="yes"/>
      <point x="437" y="595"/>
      <point x="525" y="509"/>
      <point x="525" y="360" type="curve" smooth="yes"/>
      <point x="525" y="211"/>
      <point x="439" y="125"/>
      <point x="333" y="125" type="curve" smooth="yes"/>
    </contour>
  </outline>
</glyph>
<glyph name="Ntilde" format="2">
  <advance width="695"/>
  <unicode hex="00D1"/>
  <outline>
    <component base="N"/>
    <contour>
      <point x="176" y="798" type="curve"/>
      <point x="221" y="744" type="line"/>
      <point x="221" y="744"/>
      <point x="236" y="809"/>
      <point x="291" y="809" type="curve" smooth="yes"/>
      <point x="351" y="809"/>
      <point x="356" y="749"/>
      <point x="421" y="749" type="curve" smooth="yes"/>
      <point x="481" y="749"/>
      <point x="511" y="789"/>
      <point x="526" y="819" type="curve"/>
      <point x="481" y="873" type="line"/>
      <point x="471" y="853"/>
      <point x="451" y="818"/>
      <point x="416" y="818" type="curve" smooth="yes"/>
      <point x="371" y="818"/>
      <point x="351" y="878"/>
      <point x="286" y="878" type="curve" smooth="yes"/>
      <point x="226" y="878"/>
      <point x="191" y="828"/>
    </contour>
  </outline>
</glyph>
<glyph name="Ograve" format="2">
  <advance width="780"/>
  <unicode hex="00D2"/>
  <outline>
    <component base="O"/>
    <contour>
      <point x="270" y="880" type="line"/>
      <point x="360" y="760" type="line"/>
      <point x="460" y="780" type="line"/>
      <point x="410" y="880" type="line"/>
    </contour>
  </outline>
</glyph>
<glyph name="Oacute" format="2">
  <advance width="780"/>
  <unicode hex="00D3"/>
  <outline>
    <component base="O"/>
    <contour>
      <point x="320" y="780" type="line"/>
      <point x="420" y="760" type="line"/>
      <point x="510" y="880" type="line"/>
      <point x="370" y="880" type="line"/>
    </contour>
  </outline>
</glyph>
<glyph name="Ocircumflex" format="2">
  <advance width="780"/>
  <unicode hex="00D4"/>
  <outline>
    <component base="O"/>
    <contour>
      <point x="280" y="790" type="line"/>
      <point x="340" y="760" type="line"/>
      <point x="390" y="820" type="line"/>
      <point x="440" y="760" type="line"/>
      <point x="510" y="790" type="line"/>
      <point x="420" y="890" type="line"/>
      <point x="360" y="890" type="line"/>
    </contour>
  </outline>
</glyph>
<glyph name="Otilde" format="2">
  <advance width="780"/>
  <unicode hex="00D5"/>
  <outline>
    <component base="O"/>
    <contour>
      <point x="206" y="808" type="curve"/>
      <point x="251" y="754" type="line"/>
      <point x="251" y="754"/>
      <point x="266" y="819"/>
      <point x="321" y="819" type="curve" smooth="yes"/>
      <point x="381" y="819"/>
      <point x="386" y="759"/>
      <point x="451" y="759" type="curve" smooth="yes"/>
      <point x="511" y="759"/>
      <point x="541" y="799"/>
      <point x="556" y="829" type="curve"/>
      <point x="511" y="883" type="line"/>
      <point x="501" y="863"/>
      <point x="481" y="828"/>
      <point x="446" y="828" type="curve" smooth="yes"/>
      <point x="401" y="828"/>
      <point x="381" y="888"/>
      <point x="316" y="888" type="curve" smooth="yes"/>
      <point x="256" y="888"/>
      <point x="221" y="838"/>
    </contour>
  </outline>
</glyph>
<glyph name="Odieresis" format="2">
  <advance width="780"/>
  <unicode hex="00D6"/>
  <outline>
    <component base="O"/>
    <contour>
      <point x="120" y="740" type="line"/>
      <point x="210" y="740" type="line"/>
      <point x="210" y="830" type="line"/>
      <point x="120" y="830" type="line"/>
    </contour>
    <contour>
      <point x="570" y="740" type="line"/>
      <point x="660" y="740" type="line"/>
      <point x="660" y="830" type="line"/>
      <point x="570" y="830" type="line"/>
    </contour>
  </outline>
</glyph>
<glyph name="multiply" format="2">
  <advance width="470"/>
  <unicode hex="00D7"/>
  <outline>
    <contour>
      <point x="125" y="110" type="line"/>
      <point x="235" y="220" type="line"/>
      <point x="345" y="110" type="line"/>
      <point x="435" y="200" type="line"/>
      <point x="325" y="310" type="line"/>
      <point x="435" y="420" type="line"/>
      <point x="345" y="510" type="line"/>
      <point x="235" y="400" type="line"/>
      <point x="125" y="510" type="line"/>
      <point x="35" y="420" type="line"/>
      <point x="145" y="310" type="line"/>
      <point x="35" y="200" type="line"/>
    </contour>
  </outline>
</glyph>
<glyph name="Oslash" format="2">
  <advance width="780"/>
  <unicode hex="00D8"/>
  <outline>
    <contour>
      <point x="140" y="0" type="line"/>
      <point x="186" y="48" type="line"/>
      <point x="243" y="10"/>
      <point x="314" y="-10"/>
      <point x="390" y="-10" type="curve" smooth="yes"/>
      <point x="582" y="-10"/>
      <point x="740" y="115"/>
      <point x="740" y="360" type="curve" smooth="yes"/>
      <point x="740" y="448"/>
      <point x="719" y="521"/>
      <point x="684" y="579" type="curve"/>
      <point x="731" y="629" type="line"/>
      <point x="649" y="720" type="line"/>
      <point x="599" y="667" type="line"/>
      <point x="541" y="708"/>
      <point x="468" y="730"/>
      <point x="390" y="730" type="curve" smooth="yes"/>
      <point x="198" y="730"/>
      <point x="40" y="605"/>
      <point x="40" y="360" type="curve" smooth="yes"/>
      <point x="40" y="271"/>
      <point x="61" y="198"/>
      <point x="96" y="140" type="curve"/>
      <point x="49" y="91" type="line"/>
    </contour>
    <contour>
      <point x="204" y="253" type="line"/>
      <point x="194" y="284"/>
      <point x="185" y="320"/>
      <point x="185" y="360" type="curve" smooth="yes"/>
      <point x="185" y="518"/>
      <point x="275" y="605"/>
      <point x="390" y="605" type="curve" smooth="yes"/>
      <point x="433" y="605"/>
      <point x="473" y="592"/>
      <point x="505" y="568" type="curve"/>
    </contour>
    <contour>
      <point x="576" y="465" type="line"/>
      <point x="586" y="434"/>
      <point x="595" y="399"/>
      <point x="595" y="360" type="curve" smooth="yes"/>
      <point x="595" y="202"/>
      <point x="505" y="115"/>
      <point x="390" y="115" type="curve" smooth="yes"/>
      <point x="349" y="115"/>
      <point x="310" y="127"/>
      <point x="280" y="148" type="curve"/>
    </contour>
  </outline>
</glyph>
<glyph name="Ugrave" format="2">
  <advance width="670"/>
  <unicode hex="00D9"/>
  <outline>
    <component base="U"/>
    <contour>
      <point x="220" y="880" type="line"/>
      <point x="310" y="760" type="line"/>
      <point x="410" y="780" type="line"/>
      <point x="360" y="880" type="line"/>
    </contour>
  </outline>
</glyph>
<glyph name="Uacute" format="2">
  <advance width="670"/>
  <unicode hex="00DA"/>
  <outline>
    <component base="U"/>
    <contour>
      <point x="260" y="780" type="line"/>
      <point x="360" y="760" type="line"/>
      <point x="450" y="880" type="line"/>
      <point x="310" y="880" type="line"/>
    </contour>
  </outline>
</glyph>
<glyph name="Ucircumflex" format="2">
  <advance width="670"/>
  <unicode hex="00DB"/>
  <outline>
    <component base="U"/>
    <contour>
      <point x="215" y="780" type="line"/>
      <point x="285" y="750" type="line"/>
      <point x="335" y="810" type="line"/>
      <point x="385" y="750" type="line"/>
      <point x="455" y="780" type="line"/>
      <point x="365" y="890" type="line"/>
      <point x="305" y="890" type="line"/>
    </contour>
  </outline>
</glyph>
<glyph name="Udieresis" format="2">
  <advance width="670"/>
  <unicode hex="00DC"/>
  <outline>
    <component base="U"/>
    <contour>
      <point x="115" y="780" type="line"/>
      <point x="205" y="780" type="line"/>
      <point x="205" y="870" type="line"/>
      <point x="115" y="870" type="line"/>
    </contour>
    <contour>
      <point x="465" y="780" type="line"/>
      <point x="555" y="780" type="line"/>
      <point x="555" y="870" type="line"/>
      <point x="465" y="870" type="line"/>
    </contour>
  </outline>
</glyph>
<glyph name="Yacute" format="2">
  <advance width="665"/>
  <unicode hex="00DD"/>
  <outline>
    <component base="Y"/>
    <contour>
      <point x="280" y="780" type="line"/>
      <point x="380" y="760" type="line"/>
      <point x="470" y="880" type="line"/>
      <point x="330" y="880" type="line"/>
    </contour>
  </outline>
</glyph>
<glyph name="Thorn" format="2">
  <advance width="625"/>
  <unicode hex="00DE"/>
  <outline>
    <contour>
      <point x="55" y="0" type="line"/>
      <point x="189" y="0" type="line"/>
      <point x="189" y="139" type="line"/>
      <point x="367" y="139" type="line" smooth="yes"/>
      <point x="492" y="139"/>
      <point x="590" y="235"/>
      <point x="590" y="360" type="curve" smooth="yes"/>
      <point x="590" y="485"/>
      <point x="492" y="581"/>
      <point x="367" y="581" type="curve" smooth="yes"/>
      <point x="189" y="581" type="line"/>
      <point x="189" y="720" type="line"/>
      <point x="55" y="720" type="line"/>
    </contour>
    <contour>
      <point x="189" y="264" type="line"/>
      <point x="189" y="456" type="line"/>
      <point x="367" y="456" type="line" smooth="yes"/>
      <point x="422" y="456"/>
      <point x="455" y="409"/>
      <point x="455" y="361" type="curve" smooth="yes"/>
      <point x="455" y="313"/>
      <point x="421" y="264"/>
      <point x="367" y="264" type="curve" smooth="yes"/>
    </contour>
  </outline>
</glyph>
<glyph name="germandbls" format="2">
  <advance width="555"/>
  <unicode hex="00DF"/>
  <outline>
    <contour>
      <point x="45" y="-130" type="line"/>
      <point x="165" y="-130" type="line"/>
      <point x="165" y="50" type="line"/>
      <point x="195" y="10"/>
      <point x="245" y="-10"/>
      <point x="305" y="-10" type="curve" smooth="yes"/>
      <point x="435" y="-10"/>
      <point x="525" y="90"/>
      <point x="525" y="220" type="curve" smooth="yes"/>
      <point x="525" y="320"/>
      <point x="435" y="396"/>
      <point x="370" y="410" type="curve"/>
      <point x="401" y="415"/>
      <point x="475" y="478"/>
      <point x="475" y="558" type="curve" smooth="yes"/>
      <point x="475" y="678"/>
      <point x="387" y="760"/>
      <point x="257" y="760" type="curve" smooth="yes"/>
      <point x="137" y="760"/>
      <point x="45" y="680"/>
      <point x="45" y="550" type="curve" smooth="yes"/>
    </contour>
    <contour>
      <point x="175" y="460" type="line"/>
      <point x="175" y="550" type="line" smooth="yes"/>
      <point x="175" y="590"/>
      <point x="200" y="640"/>
      <point x="260" y="640" type="curve" smooth="yes"/>
      <point x="320" y="640"/>
      <point x="345" y="595"/>
      <point x="345" y="550" type="curve" smooth="yes"/>
      <point x="345" y="505"/>
      <point x="310" y="460"/>
      <point x="250" y="460" type="curve" smooth="yes"/>
    </contour>
    <contour>
      <point x="165" y="340" type="line"/>
      <point x="275" y="340" type="line" smooth="yes"/>
      <point x="335" y="340"/>
      <point x="390" y="295"/>
      <point x="390" y="225" type="curve" smooth="yes"/>
      <point x="390" y="155"/>
      <point x="335" y="110"/>
      <point x="275" y="110" type="curve" smooth="yes"/>
      <point x="215" y="110"/>
      <point x="185" y="140"/>
      <point x="165" y="180" type="curve"/>
    </contour>
  </outline>
</glyph>
<glyph name="aacute" format="2">
  <advance width="540"/>
  <unicode hex="00E1"/>
  <outline>
    <component base="a"/>
    <contour>
      <point x="200" y="600" type="line"/>
      <point x="300" y="580" type="line"/>
      <point x="390" y="700" type="line"/>
      <point x="250" y="700" type="line"/>
    </contour>
  </outline>
</glyph>
<glyph name="acircumflex" format="2">
  <advance width="540"/>
  <unicode hex="00E2"/>
  <outline>
    <component base="a"/>
    <contour>
      <point x="150" y="600" type="line"/>
      <point x="220" y="570" type="line"/>
      <point x="270" y="630" type="line"/>
      <point x="320" y="570" type="line"/>
      <point x="390" y="600" type="line"/>
      <point x="300" y="710" type="line"/>
      <point x="240" y="710" type="line"/>
    </contour>
  </outline>
</glyph>
<glyph name="atilde" format="2">
  <advance width="540"/>
  <unicode hex="00E3"/>
  <outline>
    <component base="a"/>
    <contour>
      <point x="82" y="604" type="curve"/>
      <point x="127" y="550" type="line"/>
      <point x="127" y="550"/>
      <point x="142" y="615"/>
      <point x="197" y="615" type="curve" smooth="yes"/>
      <point x="257" y="615"/>
      <point x="262" y="555"/>
      <point x="327" y="555" type="curve" smooth="yes"/>
      <point x="387" y="555"/>
      <point x="417" y="595"/>
      <point x="432" y="625" type="curve"/>
      <point x="387" y="679" type="line"/>
      <point x="377" y="659"/>
      <point x="357" y="624"/>
      <point x="322" y="624" type="curve" smooth="yes"/>
      <point x="277" y="624"/>
      <point x="257" y="684"/>
      <point x="192" y="684" type="curve" smooth="yes"/>
      <point x="132" y="684"/>
      <point x="97" y="634"/>
    </contour>
  </outline>
</glyph>
<glyph name="adieresis" format="2">
  <advance width="540"/>
  <unicode hex="00E4"/>
  <outline>
    <component base="a"/>
    <contour>
      <point x="90" y="600" type="line"/>
      <point x="180" y="600" type="line"/>
      <point x="180" y="690" type="line"/>
      <point x="90" y="690" type="line"/>
    </contour>
    <contour>
      <point x="370" y="600" type="line"/>
      <point x="460" y="600" type="line"/>
      <point x="460" y="690" type="line"/>
      <point x="370" y="690" type="line"/>
    </contour>
  </outline>
</glyph>
<glyph name="aring" format="2">
  <advance width="540"/>
  <unicode hex="00E5"/>
  <outline>
    <component base="a"/>
    <contour>
      <point x="240" y="640" type="curve" smooth="yes"/>
      <point x="240" y="656"/>
      <point x="254" y="670"/>
      <point x="270" y="670" type="curve" smooth="yes"/>
      <point x="286" y="670"/>
      <point x="300" y="656"/>
      <point x="300" y="640" type="curve" smooth="yes"/>
      <point x="300" y="624"/>
      <point x="286" y="610"/>
      <point x="270" y="610" type="curve" smooth="yes"/>
      <point x="254" y="610"/>
      <point x="240" y="624"/>
    </contour>
    <contour>
      <point x="200" y="640" type="curve" smooth="yes"/>
      <point x="200" y="602"/>
      <point x="232" y="570"/>
      <point x="270" y="570" type="curve" smooth="yes"/>
      <point x="308" y="570"/>
      <point x="340" y="602"/>
      <point x="340" y="640" type="curve" smooth="yes"/>
      <point x="340" y="678"/>
      <point x="308" y="710"/>
      <point x="270" y="710" type="curve" smooth="yes"/>
      <point x="232" y="710"/>
      <point x="200" y="678"/>
    </contour>
  </outline>
</glyph>
<glyph name="ae" format="2">
  <advance width="895"/>
  <unicode hex="00E6"/>
  <outline>
    <contour>
      <point x="50" y="440" type="curve"/>
      <point x="120" y="370" type="line"/>
      <point x="130" y="380"/>
      <point x="190" y="425"/>
      <point x="260" y="425" type="curve" smooth="yes"/>
      <point x="322" y="425"/>
      <point x="360" y="394"/>
      <point x="360" y="355" type="curve" smooth="yes"/>
      <point x="360" y="295" type="line"/>
      <point x="329" y="310"/>
      <point x="282" y="326"/>
      <point x="221" y="326" type="curve" smooth="yes"/>
      <point x="174" y="326"/>
      <point x="30" y="305"/>
      <point x="30" y="155" type="curve" smooth="yes"/>
      <point x="30" y="52"/>
      <point x="120" y="-10"/>
      <point x="205" y="-10" type="curve" smooth="yes"/>
      <point x="330" y="-10"/>
      <point x="367" y="30"/>
      <point x="418" y="80" type="curve"/>
      <point x="456" y="27"/>
      <point x="527" y="-10"/>
      <point x="610" y="-10" type="curve" smooth="yes"/>
      <point x="730" y="-10"/>
      <point x="808" y="40"/>
      <point x="848" y="110" type="curve"/>
      <point x="745" y="160" type="line"/>
      <point x="707" y="113"/>
      <point x="675" y="95"/>
      <point x="615" y="95" type="curve" smooth="yes"/>
      <point x="555" y="95"/>
      <point x="495" y="141"/>
      <point x="495" y="218" type="curve"/>
      <point x="864" y="218" type="line"/>
      <point x="865" y="231"/>
      <point x="865" y="241"/>
      <point x="865" y="260" type="curve" smooth="yes"/>
      <point x="865" y="475"/>
      <point x="703" y="530"/>
      <point x="610" y="530" type="curve" smooth="yes"/>
      <point x="557" y="530"/>
      <point x="477" y="507"/>
      <point x="440" y="457" type="curve"/>
      <point x="410" y="501"/>
      <point x="340" y="530"/>
      <point x="274" y="530" type="curve" smooth="yes"/>
      <point x="136" y="530"/>
      <point x="70" y="464"/>
    </contour>
    <contour>
      <point x="495" y="312" type="line"/>
      <point x="495" y="369"/>
      <point x="540" y="425"/>
      <point x="610" y="425" type="curve" smooth="yes"/>
      <point x="680" y="425"/>
      <point x="725" y="369"/>
      <point x="725" y="312" type="curve"/>
    </contour>
    <contour>
      <point x="360" y="215" type="curve"/>
      <point x="360" y="150" type="line"/>
      <point x="343" y="128"/>
      <point x="299" y="94"/>
      <point x="243" y="94" type="curve" smooth="yes"/>
      <point x="188" y="94"/>
      <point x="157" y="129"/>
      <point x="157" y="165" type="curve" smooth="yes"/>
      <point x="157" y="215"/>
      <point x="205" y="236"/>
      <point x="245" y="236" type="curve" smooth="yes"/>
      <point x="295" y="236"/>
      <point x="336" y="223"/>
    </contour>
  </outline>
</glyph>
<glyph name="ccedilla" format="2">
  <advance width="555"/>
  <unicode hex="00E7"/>
  <outline>
    <contour>
      <point x="145" y="-126" type="line"/>
      <point x="170" y="-166"/>
      <point x="230" y="-190"/>
      <point x="290" y="-190" type="curve" smooth="yes"/>
      <point x="350" y="-190"/>
      <point x="430" y="-160"/>
      <point x="430" y="-90" type="curve" smooth="yes"/>
      <point x="430" y="-32"/>
      <point x="380" y="-9"/>
      <point x="359" y="-3" type="curve"/>
      <point x="433" y="13"/>
      <point x="499" y="58"/>
      <point x="526" y="150" type="curve"/>
      <point x="412" y="190" type="line"/>
      <point x="395" y="140"/>
      <point x="355" y="102"/>
      <point x="290" y="102" type="curve" smooth="yes"/>
      <point x="220" y="102"/>
      <point x="160" y="155"/>
      <point x="160" y="260" type="curve" smooth="yes"/>
      <point x="160" y="365"/>
      <point x="220" y="418"/>
      <point x="290" y="418" type="curve" smooth="yes"/>
      <point x="355" y="418"/>
      <point x="395" y="380"/>
      <point x="412" y="330" type="curve"/>
      <point x="526" y="370" type="line"/>
      <point x="491" y="490"/>
      <point x="389" y="530"/>
      <point x="290" y="530" type="curve" smooth="yes"/>
      <point x="189" y="530"/>
      <point x="30" y="475"/>
      <point x="30" y="260" type="curve" smooth="yes"/>
      <point x="30" y="58"/>
      <point x="160" y="1"/>
      <point x="260" y="-7" type="curve"/>
      <point x="290" y="-7"/>
      <point x="345" y="-28"/>
      <point x="345" y="-68" type="curve" smooth="yes"/>
      <point x="345" y="-98"/>
      <point x="320" y="-120"/>
      <point x="285" y="-120" type="curve" smooth="yes"/>
      <point x="250" y="-120"/>
      <point x="224" y="-107"/>
      <point x="210" y="-90" type="curve"/>
    </contour>
  </outline>
</glyph>
<glyph name="egrave" format="2">
  <advance width="565"/>
  <unicode hex="00E8"/>
  <outline>
    <component base="e"/>
    <contour>
      <point x="175" y="700" type="line"/>
      <point x="265" y="580" type="line"/>
      <point x="365" y="600" type="line"/>
      <point x="315" y="700" type="line"/>
    </contour>
  </outline>
</glyph>
<glyph name="eacute" format="2">
  <advance width="565"/>
  <unicode hex="00E9"/>
  <outline>
    <component base="e"/>
    <contour>
      <point x="215" y="600" type="line"/>
      <point x="315" y="580" type="line"/>
      <point x="405" y="700" type="line"/>
      <point x="265" y="700" type="line"/>
    </contour>
  </outline>
</glyph>
<glyph name="ecircumflex" format="2">
  <advance width="565"/>
  <unicode hex="00EA"/>
  <outline>
    <component base="e"/>
    <contour>
      <point x="165" y="600" type="line"/>
      <point x="235" y="570" type="line"/>
      <point x="285" y="630" type="line"/>
      <point x="335" y="570" type="line"/>
      <point x="405" y="600" type="line"/>
      <point x="315" y="710" type="line"/>
      <point x="255" y="710" type="line"/>
    </contour>
  </outline>
</glyph>
<glyph name="edieresis" format="2">
  <advance width="565"/>
  <unicode hex="00EB"/>
  <outline>
    <component base="e"/>
    <contour>
      <point x="105" y="600" type="line"/>
      <point x="195" y="600" type="line"/>
      <point x="195" y="690" type="line"/>
      <point x="105" y="690" type="line"/>
    </contour>
    <contour>
      <point x="385" y="600" type="line"/>
      <point x="475" y="600" type="line"/>
      <point x="475" y="690" type="line"/>
      <point x="385" y="690" type="line"/>
    </contour>
  </outline>
</glyph>
<glyph name="igrave" format="2">
  <advance width="240"/>
  <unicode hex="00EC"/>
  <outline>
    <component base="dotlessi"/>
    <contour>
      <point x="15" y="700" type="line"/>
      <point x="105" y="580" type="line"/>
      <point x="205" y="600" type="line"/>
      <point x="155" y="700" type="line"/>
    </contour>
  </outline>
</glyph>
<glyph name="iacute" format="2">
  <advance width="240"/>
  <unicode hex="00ED"/>
  <outline>
    <component base="dotlessi"/>
    <contour>
      <point x="35" y="600" type="line"/>
      <point x="135" y="580" type="line"/>
      <point x="225" y="700" type="line"/>
      <point x="85" y="700" type="line"/>
    </contour>
  </outline>
</glyph>
<glyph name="icircumflex" format="2">
  <advance width="240"/>
  <unicode hex="00EE"/>
  <outline>
    <component base="dotlessi" xOffset="5"/>
    <contour>
      <point x="0" y="600" type="line"/>
      <point x="70" y="570" type="line"/>
      <point x="120" y="630" type="line"/>
      <point x="170" y="570" type="line"/>
      <point x="240" y="600" type="line"/>
      <point x="150" y="710" type="line"/>
      <point x="90" y="710" type="line"/>
    </contour>
  </outline>
</glyph>
<glyph name="idieresis" format="2">
  <advance width="240"/>
  <unicode hex="00EF"/>
  <outline>
    <component base="dotlessi" xOffset="5"/>
    <contour>
      <point x="5" y="600" type="line"/>
      <point x="95" y="600" type="line"/>
      <point x="95" y="690" type="line"/>
      <point x="5" y="690" type="line"/>
    </contour>
    <contour>
      <point x="145" y="600" type="line"/>
      <point x="235" y="600" type="line"/>
      <point x="235" y="690" type="line"/>
      <point x="145" y="690" type="line"/>
    </contour>
  </outline>
</glyph>
<glyph name="eth" format="2">
  <advance width="605"/>
  <unicode hex="00F0"/>
  <outline>
    <contour>
      <point x="182" y="540" type="line"/>
      <point x="346" y="574" type="line"/>
      <point x="376" y="549"/>
      <point x="411" y="503"/>
      <point x="420" y="445" type="curve"/>
      <point x="385" y="490"/>
      <point x="330" y="502"/>
      <point x="280" y="502" type="curve" smooth="yes"/>
      <point x="130" y="502"/>
      <point x="35" y="402"/>
      <point x="35" y="252" type="curve" smooth="yes"/>
      <point x="35" y="122"/>
      <point x="120" y="-8"/>
      <point x="300" y="-8" type="curve" smooth="yes"/>
      <point x="470" y="-8"/>
      <point x="570" y="115"/>
      <point x="570" y="300" type="curve" smooth="yes"/>
      <point x="570" y="450"/>
      <point x="518" y="541"/>
      <point x="478" y="601" type="curve"/>
      <point x="578" y="620" type="line"/>
      <point x="561" y="709" type="line"/>
      <point x="412" y="678" type="line"/>
      <point x="377" y="712"/>
      <point x="330" y="740"/>
      <point x="300" y="755" type="curve"/>
      <point x="194" y="709" type="line"/>
      <point x="215" y="697"/>
      <point x="264" y="671"/>
      <point x="282" y="651" type="curve"/>
      <point x="165" y="629" type="line"/>
    </contour>
    <contour>
      <point x="300" y="112" type="curve" smooth="yes"/>
      <point x="223" y="112"/>
      <point x="170" y="166"/>
      <point x="170" y="252" type="curve" smooth="yes"/>
      <point x="170" y="338"/>
      <point x="223" y="392"/>
      <point x="300" y="392" type="curve" smooth="yes"/>
      <point x="377" y="392"/>
      <point x="430" y="338"/>
      <point x="430" y="252" type="curve" smooth="yes"/>
      <point x="430" y="166"/>
      <point x="377" y="112"/>
    </contour>
  </outline>
</glyph>
<glyph name="ntilde" format="2">
  <advance width="550"/>
  <unicode hex="00F1"/>
  <outline>
    <component base="n"/>
    <contour>
      <point x="86" y="604" type="curve"/>
      <point x="131" y="550" type="line"/>
      <point x="131" y="550"/>
      <point x="146" y="615"/>
      <point x="201" y="615" type="curve" smooth="yes"/>
      <point x="261" y="615"/>
      <point x="266" y="555"/>
      <point x="331" y="555" type="curve" smooth="yes"/>
      <point x="391" y="555"/>
      <point x="421" y="595"/>
      <point x="436" y="625" type="curve"/>
      <point x="391" y="679" type="line"/>
      <point x="381" y="659"/>
      <point x="361" y="624"/>
      <point x="326" y="624" type="curve" smooth="yes"/>
      <point x="281" y="624"/>
      <point x="261" y="684"/>
      <point x="196" y="684" type="curve" smooth="yes"/>
      <point x="136" y="684"/>
      <point x="101" y="634"/>
    </contour>
  </outline>
</glyph>
<glyph name="ograve" format="2">
  <advance width="590"/>
  <unicode hex="00F2"/>
  <outline>
    <component base="o"/>
    <contour>
      <point x="155" y="700" type="line"/>
      <point x="245" y="580" type="line"/>
      <point x="345" y="600" type="line"/>
      <point x="295" y="700" type="line"/>
    </contour>
  </outline>
</glyph>
<glyph name="oacute" format="2">
  <advance width="590"/>
  <unicode hex="00F3"/>
  <outline>
    <component base="o"/>
    <contour>
      <point x="235" y="600" type="line"/>
      <point x="335" y="580" type="line"/>
      <point x="425" y="700" type="line"/>
      <point x="285" y="700" type="line"/>
    </contour>
  </outline>
</glyph>
<glyph name="ocircumflex" format="2">
  <advance width="590"/>
  <unicode hex="00F4"/>
  <outline>
    <component base="o"/>
    <contour>
      <point x="170" y="600" type="line"/>
      <point x="240" y="570" type="line"/>
      <point x="290" y="630" type="line"/>
      <point x="340" y="570" type="line"/>
      <point x="410" y="600" type="line"/>
      <point x="320" y="710" type="line"/>
      <point x="260" y="710" type="line"/>
    </contour>
  </outline>
</glyph>
<glyph name="otilde" format="2">
  <advance width="590"/>
  <unicode hex="00F5"/>
  <outline>
    <component base="o"/>
    <contour>
      <point x="111" y="604" type="curve"/>
      <point x="156" y="550" type="line"/>
      <point x="156" y="550"/>
      <point x="171" y="615"/>
      <point x="226" y="615" type="curve" smooth="yes"/>
      <point x="286" y="615"/>
      <point x="291" y="555"/>
      <point x="356" y="555" type="curve" smooth="yes"/>
      <point x="416" y="555"/>
      <point x="446" y="595"/>
      <point x="461" y="625" type="curve"/>
      <point x="416" y="679" type="line"/>
      <point x="406" y="659"/>
      <point x="386" y="624"/>
      <point x="351" y="624" type="curve" smooth="yes"/>
      <point x="306" y="624"/>
      <point x="286" y="684"/>
      <point x="221" y="684" type="curve" smooth="yes"/>
      <point x="161" y="684"/>
      <point x="126" y="634"/>
    </contour>
  </outline>
</glyph>
<glyph name="odieresis" format="2">
  <advance width="590"/>
  <unicode hex="00F6"/>
  <outline>
    <component base="o"/>
    <contour>
      <point x="105" y="600" type="line"/>
      <point x="195" y="600" type="line"/>
      <point x="195" y="690" type="line"/>
      <point x="105" y="690" type="line"/>
    </contour>
    <contour>
      <point x="385" y="600" type="line"/>
      <point x="475" y="600" type="line"/>
      <point x="475" y="690" type="line"/>
      <point x="385" y="690" type="line"/>
    </contour>
  </outline>
</glyph>
<glyph name="divide" format="2">
  <advance width="450"/>
  <unicode hex="00F7"/>
  <outline>
    <contour>
      <point x="45" y="270" type="line"/>
      <point x="405" y="270" type="line"/>
      <point x="405" y="360" type="line"/>
      <point x="45" y="360" type="line"/>
    </contour>
    <contour>
      <point x="165" y="410" type="line"/>
      <point x="275" y="410" type="line"/>
      <point x="275" y="510" type="line"/>
      <point x="165" y="510" type="line"/>
    </contour>
    <contour>
      <point x="165" y="120" type="line"/>
      <point x="275" y="120" type="line"/>
      <point x="275" y="220" type="line"/>
      <point x="165" y="220" type="line"/>
    </contour>
  </outline>
</glyph>
<glyph name="oslash" format="2">
  <advance width="590"/>
  <unicode hex="00F8"/>
  <outline>
    <contour>
      <point x="95" y="0" type="line"/>
      <point x="132" y="37" type="line"/>
      <point x="183" y="2"/>
      <point x="245" y="-10"/>
      <point x="295" y="-10" type="curve" smooth="yes"/>
      <point x="390" y="-10"/>
      <point x="560" y="45"/>
      <point x="560" y="260" type="curve" smooth="yes"/>
      <point x="560" y="330"/>
      <point x="541" y="384"/>
      <point x="513" y="424" type="curve"/>
      <point x="550" y="461" type="line"/>
      <point x="495" y="520" type="line"/>
      <point x="456" y="480" type="line"/>
      <point x="403" y="517"/>
      <point x="340" y="530"/>
      <point x="295" y="530" type="curve" smooth="yes"/>
      <point x="189" y="530"/>
      <point x="30" y="475"/>
      <point x="30" y="260" type="curve" smooth="yes"/>
      <point x="30" y="189"/>
      <point x="48" y="135"/>
      <point x="75" y="95" type="curve"/>
      <point x="40" y="60" type="line"/>
    </contour>
    <contour>
      <point x="369" y="393" type="curve"/>
      <point x="171" y="193" type="line"/>
      <point x="165" y="212"/>
      <point x="162" y="234"/>
      <point x="162" y="260" type="curve" smooth="yes"/>
      <point x="162" y="365"/>
      <point x="220" y="418"/>
      <point x="295" y="418" type="curve" smooth="yes"/>
      <point x="321" y="418"/>
      <point x="347" y="409"/>
    </contour>
    <contour>
      <point x="218" y="125" type="curve"/>
      <point x="417" y="326" type="line"/>
      <point x="424" y="307"/>
      <point x="428" y="285"/>
      <point x="428" y="260" type="curve" smooth="yes"/>
      <point x="428" y="155"/>
      <point x="360" y="102"/>
      <point x="295" y="102" type="curve" smooth="yes"/>
      <point x="266" y="102"/>
      <point x="240" y="110"/>
    </contour>
  </outline>
</glyph>
<glyph name="ugrave" format="2">
  <advance width="550"/>
  <unicode hex="00F9"/>
  <outline>
    <component base="u"/>
    <contour>
      <point x="230" y="580" type="line"/>
      <point x="330" y="600" type="line"/>
      <point x="280" y="700" type="line"/>
      <point x="140" y="700" type="line"/>
    </contour>
  </outline>
</glyph>
<glyph name="uacute" format="2">
  <advance width="550"/>
  <unicode hex="00FA"/>
  <outline>
    <component base="u"/>
    <contour>
      <point x="210" y="600" type="line"/>
      <point x="310" y="580" type="line"/>
      <point x="400" y="700" type="line"/>
      <point x="260" y="700" type="line"/>
    </contour>
  </outline>
</glyph>
<glyph name="ucircumflex" format="2">
  <advance width="550"/>
  <unicode hex="00FB"/>
  <outline>
    <component base="u"/>
    <contour>
      <point x="155" y="600" type="line"/>
      <point x="225" y="570" type="line"/>
      <point x="275" y="630" type="line"/>
      <point x="325" y="570" type="line"/>
      <point x="395" y="600" type="line"/>
      <point x="305" y="710" type="line"/>
      <point x="245" y="710" type="line"/>
    </contour>
  </outline>
</glyph>
<glyph name="udieresis" format="2">
  <advance width="550"/>
  <unicode hex="00FC"/>
  <outline>
    <component base="u"/>
    <contour>
      <point x="90" y="600" type="line"/>
      <point x="180" y="600" type="line"/>
      <point x="180" y="690" type="line"/>
      <point x="90" y="690" type="line"/>
    </contour>
    <contour>
      <point x="360" y="600" type="line"/>
      <point x="450" y="600" type="line"/>
      <point x="450" y="690" type="line"/>
      <point x="360" y="690" type="line"/>
    </contour>
  </outline>
</glyph>
<glyph name="yacute" format="2">
  <advance width="540"/>
  <unicode hex="00FD"/>
  <outline>
    <component base="y"/>
    <contour>
      <point x="230" y="600" type="line"/>
      <point x="330" y="580" type="line"/>
      <point x="420" y="700" type="line"/>
      <point x="280" y="700" type="line"/>
    </contour>
  </outline>
</glyph>
<glyph name="ydieresis" format="2">
  <advance width="540"/>
  <unicode hex="00FF"/>
  <outline>
    <component base="y"/>
    <contour>
      <point x="80" y="600" type="line"/>
      <point x="170" y="600" type="line"/>
      <point x="170" y="690" type="line"/>
      <point x="80" y="690" type="line"/>
    </contour>
    <contour>
      <point x="360" y="600" type="line"/>
      <point x="450" y="600" type="line"/>
      <point x="450" y="690" type="line"/>
      <point x="360" y="690" type="line"/>
    </contour>
  </outline>
</glyph>
<glyph name="Lslash" format="2">
  <advance width="540"/>
  <unicode hex="0141"/>
  <outline>
    <contour>
      <point x="103" y="0" type="line"/>
      <point x="563" y="0" type="line"/>
      <point x="563" y="125" type="line"/>
      <point x="238" y="125" type="line"/>
      <point x="238" y="342" type="line"/>
      <point x="352" y="365" type="line"/>
      <point x="342" y="470" type="line"/>
      <point x="238" y="449" type="line"/>
      <point x="238" y="720" type="line"/>
      <point x="103" y="720" type="line"/>
      <point x="103" y="422" type="line"/>
      <point x="55" y="413" type="line"/>
      <point x="65" y="307" type="line"/>
      <point x="103" y="315" type="line"/>
    </contour>
  </outline>
</glyph>
<glyph name="lslash" format="2">
  <advance width="330"/>
  <unicode hex="0142"/>
  <outline>
    <contour>
      <point x="95" y="0" type="line"/>
      <point x="225" y="0" type="line"/>
      <point x="225" y="361" type="line"/>
      <point x="319" y="380" type="line"/>
      <point x="309" y="490" type="line"/>
      <point x="225" y="473" type="line"/>
      <point x="225" y="750" type="line"/>
      <point x="95" y="750" type="line"/>
      <point x="95" y="447" type="line"/>
      <point x="10" y="430" type="line"/>
      <point x="20" y="320" type="line"/>
      <point x="95" y="335" type="line"/>
    </contour>
  </outline>
</glyph>
<glyph name="OE" format="2">
  <advance width="1090"/>
  <unicode hex="0152"/>
  <outline>
    <contour>
      <point x="390" y="115" type="curve" smooth="yes"/>
      <point x="275" y="115"/>
      <point x="185" y="202"/>
      <point x="185" y="360" type="curve" smooth="yes"/>
      <point x="185" y="518"/>
      <point x="275" y="605"/>
      <point x="390" y="605" type="curve" smooth="yes"/>
      <point x="472" y="605"/>
      <point x="544" y="566"/>
      <point x="571" y="485" type="curve"/>
      <point x="571" y="235" type="line"/>
      <point x="544" y="154"/>
      <point x="472" y="115"/>
    </contour>
    <contour>
      <point x="571" y="0" type="line"/>
      <point x="1048" y="0" type="line"/>
      <point x="1048" y="125" type="line"/>
      <point x="706" y="125" type="line"/>
      <point x="706" y="307" type="line"/>
      <point x="1008" y="307" type="line"/>
      <point x="1008" y="432" type="line"/>
      <point x="706" y="432" type="line"/>
      <point x="706" y="595" type="line"/>
      <point x="1038" y="595" type="line"/>
      <point x="1038" y="720" type="line"/>
      <point x="571" y="720" type="line"/>
      <point x="571" y="675" type="line"/>
      <point x="527" y="714"/>
      <point x="456" y="730"/>
      <point x="390" y="730" type="curve" smooth="yes"/>
      <point x="198" y="730"/>
      <point x="40" y="605"/>
      <point x="40" y="360" type="curve" smooth="yes"/>
      <point x="40" y="115"/>
      <point x="198" y="-10"/>
      <point x="390" y="-10" type="curve" smooth="yes"/>
      <point x="456" y="-10"/>
      <point x="526" y="5"/>
      <point x="571" y="44" type="curve"/>
    </contour>
  </outline>
</glyph>
<glyph name="oe" format="2">
  <advance width="955"/>
  <unicode hex="0153"/>
  <outline>
    <contour>
      <point x="295" y="102" type="curve" smooth="yes"/>
      <point x="220" y="102"/>
      <point x="162" y="155"/>
      <point x="162" y="260" type="curve" smooth="yes"/>
      <point x="162" y="365"/>
      <point x="220" y="418"/>
      <point x="295" y="418" type="curve" smooth="yes"/>
      <point x="370" y="418"/>
      <point x="428" y="365"/>
      <point x="428" y="260" type="curve" smooth="yes"/>
      <point x="428" y="155"/>
      <point x="370" y="102"/>
    </contour>
    <contour>
      <point x="813" y="160" type="line"/>
      <point x="775" y="113"/>
      <point x="743" y="95"/>
      <point x="683" y="95" type="curve" smooth="yes"/>
      <point x="623" y="95"/>
      <point x="563" y="141"/>
      <point x="563" y="218" type="curve"/>
      <point x="932" y="218" type="line"/>
      <point x="933" y="231"/>
      <point x="933" y="241"/>
      <point x="933" y="260" type="curve" smooth="yes"/>
      <point x="933" y="475"/>
      <point x="772" y="530"/>
      <point x="684" y="530" type="curve" smooth="yes"/>
      <point x="624" y="530"/>
      <point x="536" y="505"/>
      <point x="491" y="440" type="curve"/>
      <point x="443" y="506"/>
      <point x="350" y="530"/>
      <point x="295" y="530" type="curve" smooth="yes"/>
      <point x="189" y="530"/>
      <point x="30" y="475"/>
      <point x="30" y="260" type="curve" smooth="yes"/>
      <point x="30" y="45"/>
      <point x="190" y="-10"/>
      <point x="295" y="-10" type="curve" smooth="yes"/>
      <point x="351" y="-10"/>
      <point x="438" y="9"/>
      <point x="491" y="79" type="curve"/>
      <point x="540" y="9"/>
      <point x="624" y="-10"/>
      <point x="683" y="-10" type="curve" smooth="yes"/>
      <point x="803" y="-10"/>
      <point x="876" y="40"/>
      <point x="916" y="110" type="curve"/>
    </contour>
    <contour>
      <point x="563" y="312" type="line"/>
      <point x="563" y="369"/>
      <point x="608" y="425"/>
      <point x="678" y="425" type="curve" smooth="yes"/>
      <point x="748" y="425"/>
      <point x="793" y="369"/>
      <point x="793" y="312" type="curve"/>
    </contour>
  </outline>
</glyph>
<glyph name="Scaron" format="2">
  <advance width="660"/>
  <unicode hex="0160"/>
  <outline>
    <component base="S"/>
    <contour>
      <point x="185" y="860" type="line"/>
      <point x="305" y="750" type="line"/>
      <point x="325" y="750" type="line"/>
      <point x="445" y="860" type="line"/>
      <point x="385" y="880" type="line"/>
      <point x="315" y="800" type="line"/>
      <point x="235" y="880" type="line"/>
    </contour>
  </outline>
</glyph>
<glyph name="scaron" format="2">
  <advance width="515"/>
  <unicode hex="0161"/>
  <outline>
    <component base="s"/>
    <contour>
      <point x="120" y="660" type="line"/>
      <point x="240" y="540" type="line"/>
      <point x="260" y="540" type="line"/>
      <point x="380" y="660" type="line"/>
      <point x="320" y="680" type="line"/>
      <point x="250" y="600" type="line"/>
      <point x="170" y="680" type="line"/>
    </contour>
  </outline>
</glyph>
<glyph name="Ydieresis" format="2">
  <advance width="665"/>
  <unicode hex="0178"/>
  <outline>
    <component base="Y"/>
    <contour>
      <point x="85" y="780" type="line"/>
      <point x="175" y="780" type="line"/>
      <point x="175" y="870" type="line"/>
      <point x="85" y="870" type="line"/>
    </contour>
    <contour>
      <point x="490" y="780" type="line"/>
      <point x="580" y="780" type="line"/>
      <point x="580" y="870" type="line"/>
      <point x="490" y="870" type="line"/>
    </contour>
  </outline>
</glyph>
<glyph name="Zcaron" format="2">
  <advance width="650"/>
  <unicode hex="017D"/>
  <outline>
    <component base="Z"/>
    <contour>
      <point x="195" y="860" type="line"/>
      <point x="315" y="750" type="line"/>
      <point x="335" y="750" type="line"/>
      <point x="455" y="860" type="line"/>
      <point x="395" y="880" type="line"/>
      <point x="325" y="800" type="line"/>
      <point x="245" y="880" type="line"/>
    </contour>
  </outline>
</glyph>
<glyph name="zcaron" format="2">
  <advance width="500"/>
  <unicode hex="017E"/>
  <outline>
    <component base="z"/>
    <contour>
      <point x="120" y="660" type="line"/>
      <point x="240" y="540" type="line"/>
      <point x="260" y="540" type="line"/>
      <point x="380" y="660" type="line"/>
      <point x="320" y="680" type="line"/>
      <point x="250" y="600" type="line"/>
      <point x="170" y="680" type="line"/>
    </contour>
  </outline>
</glyph>
<glyph name="florin" format="2">
  <advance width="670"/>
  <unicode hex="0192"/>
  <outline>
    <contour>
      <point x="-16" y="-111" type="line"/>
      <point x="0" y="-131"/>
      <point x="53" y="-175"/>
      <point x="133" y="-175" type="curve" smooth="yes"/>
      <point x="233" y="-175"/>
      <point x="312" y="-129"/>
      <point x="335" y="0" type="curve" smooth="yes"/>
      <point x="405" y="395" type="line"/>
      <point x="525" y="395" type="line"/>
      <point x="525" y="500" type="line"/>
      <point x="421" y="500" type="line"/>
      <point x="438" y="583" type="line" smooth="yes"/>
      <point x="444" y="610"/>
      <point x="460" y="652"/>
      <point x="510" y="652" type="curve" smooth="yes"/>
      <point x="554" y="652"/>
      <point x="576" y="622"/>
      <point x="590" y="609" type="curve"/>
      <point x="660" y="706" type="line"/>
      <point x="644" y="726"/>
      <point x="591" y="770"/>
      <point x="511" y="770" type="curve" smooth="yes"/>
      <point x="411" y="770"/>
      <point x="333" y="726"/>
      <point x="311" y="596" type="curve" smooth="yes"/>
      <point x="295" y="500" type="line"/>
      <point x="225" y="500" type="line"/>
      <point x="225" y="395" type="line"/>
      <point x="275" y="395" type="line"/>
      <point x="205" y="11" type="line"/>
      <point x="205" y="-5"/>
      <point x="185" y="-57"/>
      <point x="134" y="-57" type="curve" smooth="yes"/>
      <point x="90" y="-57"/>
      <point x="68" y="-27"/>
      <point x="54" y="-14" type="curve"/>
    </contour>
  </outline>
</glyph>
<glyph name="tilde" format="2">
  <advance width="420"/>
  <unicode hex="02DC"/>
  <outline>
    <contour>
      <point x="15" y="605" type="curve"/>
      <point x="60" y="521" type="line"/>
      <point x="60" y="521"/>
      <point x="80" y="586"/>
      <point x="140" y="586" type="curve" smooth="yes"/>
      <point x="200" y="586"/>
      <point x="225" y="526"/>
      <point x="290" y="526" type="curve" smooth="yes"/>
      <point x="350" y="526"/>
      <point x="390" y="566"/>
      <point x="405" y="596" type="curve"/>
      <point x="360" y="680" type="line"/>
      <point x="350" y="660"/>
      <point x="330" y="625"/>
      <point x="290" y="625" type="curve" smooth="yes"/>
      <point x="245" y="625"/>
      <point x="205" y="685"/>
      <point x="140" y="685" type="curve" smooth="yes"/>
      <point x="80" y="685"/>
      <point x="30" y="635"/>
    </contour>
  </outline>
</glyph>
<glyph name="delta" format="2">
  <advance width="730"/>
  <unicode hex="03B4"/>
  <outline>
    <contour>
      <point x="15" y="0" type="line"/>
      <point x="715" y="0" type="line"/>
      <point x="425" y="750" type="line"/>
      <point x="305" y="750" type="line"/>
    </contour>
    <contour>
      <point x="205" y="130" type="line"/>
      <point x="365" y="580" type="line"/>
      <point x="525" y="130" type="line"/>
    </contour>
  </outline>
</glyph>
<glyph name="pi" format="2">
  <advance width="510"/>
  <unicode hex="03C0"/>
  <outline>
    <contour>
      <point x="55" y="0" type="line"/>
      <point x="185" y="0" type="line"/>
      <point x="185" y="410" type="line"/>
      <point x="305" y="410" type="line"/>
      <point x="305" y="0" type="line"/>
      <point x="435" y="0" type="line"/>
      <point x="435" y="415" type="line"/>
      <point x="455" y="420"/>
      <point x="465" y="420"/>
      <point x="495" y="440" type="curve"/>
      <point x="475" y="550" type="line"/>
      <point x="465" y="540"/>
      <point x="425" y="520"/>
      <point x="395" y="520" type="curve" smooth="yes"/>
      <point x="105" y="520" type="line" smooth="yes"/>
      <point x="65" y="520"/>
      <point x="15" y="500"/>
      <point x="15" y="500" type="curve"/>
      <point x="25" y="390" type="line"/>
      <point x="35" y="400"/>
      <point x="55" y="405"/>
      <point x="55" y="405" type="curve"/>
    </contour>
  </outline>
</glyph>
<glyph name="endash" format="2">
  <advance width="550"/>
  <unicode hex="2013"/>
  <outline>
    <contour>
      <point x="45" y="270" type="line"/>
      <point x="499" y="270" type="line"/>
      <point x="499" y="360" type="line"/>
      <point x="45" y="360" type="line"/>
    </contour>
  </outline>
</glyph>
<glyph name="quoteleft" format="2">
  <advance width="200"/>
  <unicode hex="2018"/>
  <outline>
    <contour>
      <point x="25" y="486" type="line"/>
      <point x="165" y="486" type="line"/>
      <point x="165" y="628" type="line"/>
      <point x="125" y="650" type="line"/>
      <point x="173" y="770" type="line"/>
      <point x="163" y="770" type="line"/>
      <point x="45" y="676" type="line"/>
    </contour>
  </outline>
</glyph>
<glyph name="quoteright" format="2">
  <advance width="200"/>
  <unicode hex="2019"/>
  <outline>
    <contour>
      <point x="27" y="466" type="line"/>
      <point x="37" y="466" type="line"/>
      <point x="155" y="560" type="line"/>
      <point x="175" y="750" type="line"/>
      <point x="35" y="750" type="line"/>
      <point x="35" y="608" type="line"/>
      <point x="75" y="586" type="line"/>
    </contour>
  </outline>
</glyph>
<glyph name="quotesinglbase" format="2">
  <advance width="200"/>
  <unicode hex="201A"/>
  <outline>
    <contour>
      <point x="25" y="-144" type="line"/>
      <point x="35" y="-144" type="line"/>
      <point x="153" y="-50" type="line"/>
      <point x="173" y="140" type="line"/>
      <point x="33" y="140" type="line"/>
      <point x="33" y="-2" type="line"/>
      <point x="73" y="-24" type="line"/>
    </contour>
  </outline>
</glyph>
<glyph name="quotedblleft" format="2">
  <advance width="380"/>
  <unicode hex="201C"/>
  <outline>
    <contour>
      <point x="25" y="496" type="line"/>
      <point x="165" y="496" type="line"/>
      <point x="165" y="638" type="line"/>
      <point x="125" y="660" type="line"/>
      <point x="173" y="780" type="line"/>
      <point x="163" y="780" type="line"/>
      <point x="45" y="686" type="line"/>
    </contour>
    <contour>
      <point x="203" y="496" type="line"/>
      <point x="343" y="496" type="line"/>
      <point x="343" y="638" type="line"/>
      <point x="303" y="660" type="line"/>
      <point x="351" y="780" type="line"/>
      <point x="341" y="780" type="line"/>
      <point x="223" y="686" type="line"/>
    </contour>
  </outline>
</glyph>
<glyph name="quotedblright" format="2">
  <advance width="380"/>
  <unicode hex="201D"/>
  <outline>
    <contour>
      <point x="203" y="466" type="line"/>
      <point x="213" y="466" type="line"/>
      <point x="331" y="560" type="line"/>
      <point x="351" y="750" type="line"/>
      <point x="211" y="750" type="line"/>
      <point x="211" y="608" type="line"/>
      <point x="251" y="586" type="line"/>
    </contour>
    <contour>
      <point x="25" y="466" type="line"/>
      <point x="35" y="466" type="line"/>
      <point x="153" y="560" type="line"/>
      <point x="173" y="750" type="line"/>
      <point x="33" y="750" type="line"/>
      <point x="33" y="608" type="line"/>
      <point x="73" y="586" type="line"/>
    </contour>
  </outline>
</glyph>
<glyph name="quotedblbase" format="2">
  <advance width="380"/>
  <unicode hex="201E"/>
  <outline>
    <contour>
      <point x="25" y="-144" type="line"/>
      <point x="35" y="-144" type="line"/>
      <point x="153" y="-50" type="line"/>
      <point x="173" y="140" type="line"/>
      <point x="33" y="140" type="line"/>
      <point x="33" y="-2" type="line"/>
      <point x="73" y="-24" type="line"/>
    </contour>
    <contour>
      <point x="203" y="-144" type="line"/>
      <point x="213" y="-144" type="line"/>
      <point x="331" y="-50" type="line"/>
      <point x="351" y="140" type="line"/>
      <point x="211" y="140" type="line"/>
      <point x="211" y="-2" type="line"/>
      <point x="251" y="-24" type="line"/>
    </contour>
  </outline>
</glyph>
<glyph name="dagger" format="2">
  <advance width="460"/>
  <unicode hex="2020"/>
  <outline>
    <contour>
      <point x="235" y="-80" type="line"/>
      <point x="275" y="170" type="line"/>
      <point x="255" y="500" type="line"/>
      <point x="335" y="490" type="line"/>
      <point x="425" y="520" type="line"/>
      <point x="335" y="550" type="line"/>
      <point x="255" y="540" type="line"/>
      <point x="275" y="630" type="line"/>
      <point x="235" y="760" type="line"/>
      <point x="195" y="630" type="line"/>
      <point x="215" y="540" type="line"/>
      <point x="125" y="550" type="line"/>
      <point x="35" y="520" type="line"/>
      <point x="125" y="490" type="line"/>
      <point x="215" y="500" type="line"/>
      <point x="195" y="170" type="line"/>
    </contour>
  </outline>
</glyph>
<glyph name="bullet" format="2">
  <advance width="270"/>
  <unicode hex="2022"/>
  <outline>
    <contour>
      <point x="135" y="210" type="curve" smooth="yes"/>
      <point x="184" y="210"/>
      <point x="225" y="253"/>
      <point x="225" y="305" type="curve" smooth="yes"/>
      <point x="225" y="357"/>
      <point x="184" y="400"/>
      <point x="135" y="400" type="curve" smooth="yes"/>
      <point x="86" y="400"/>
      <point x="45" y="357"/>
      <point x="45" y="305" type="curve" smooth="yes"/>
      <point x="45" y="253"/>
      <point x="86" y="210"/>
    </contour>
  </outline>
</glyph>
<glyph name="ellipsis" format="2">
  <advance width="710"/>
  <unicode hex="2026"/>
  <outline>
    <contour>
      <point x="45" y="0" type="line"/>
      <point x="185" y="0" type="line"/>
      <point x="185" y="140" type="line"/>
      <point x="45" y="140" type="line"/>
    </contour>
    <contour>
      <point x="285" y="0" type="line"/>
      <point x="425" y="0" type="line"/>
      <point x="425" y="140" type="line"/>
      <point x="285" y="140" type="line"/>
    </contour>
    <contour>
      <point x="525" y="0" type="line"/>
      <point x="665" y="0" type="line"/>
      <point x="665" y="140" type="line"/>
      <point x="525" y="140" type="line"/>
    </contour>
  </outline>
</glyph>
<glyph name="perthousand" format="2">
  <advance width="1120"/>
  <unicode hex="2030"/>
  <outline>
    <contour>
      <point x="105" y="0" type="line"/>
      <point x="175" y="0" type="line"/>
      <point x="665" y="750" type="line"/>
      <point x="595" y="750" type="line"/>
    </contour>
    <contour>
      <point x="200" y="355" type="curve" smooth="yes"/>
      <point x="300" y="355"/>
      <point x="365" y="448"/>
      <point x="365" y="555" type="curve" smooth="yes"/>
      <point x="365" y="662"/>
      <point x="300" y="755"/>
      <point x="200" y="755" type="curve" smooth="yes"/>
      <point x="100" y="755"/>
      <point x="35" y="662"/>
      <point x="35" y="555" type="curve" smooth="yes"/>
      <point x="35" y="448"/>
      <point x="100" y="355"/>
    </contour>
    <contour>
      <point x="200" y="412" type="curve" smooth="yes"/>
      <point x="140" y="412"/>
      <point x="100" y="477"/>
      <point x="100" y="555" type="curve" smooth="yes"/>
      <point x="100" y="633"/>
      <point x="140" y="698"/>
      <point x="200" y="698" type="curve" smooth="yes"/>
      <point x="260" y="698"/>
      <point x="300" y="633"/>
      <point x="300" y="555" type="curve" smooth="yes"/>
      <point x="300" y="477"/>
      <point x="260" y="412"/>
    </contour>
    <contour>
      <point x="570" y="-5" type="curve" smooth="yes"/>
      <point x="670" y="-5"/>
      <point x="735" y="88"/>
      <point x="735" y="195" type="curve" smooth="yes"/>
      <point x="735" y="302"/>
      <point x="670" y="395"/>
      <point x="570" y="395" type="curve" smooth="yes"/>
      <point x="470" y="395"/>
      <point x="405" y="302"/>
      <point x="405" y="195" type="curve" smooth="yes"/>
      <point x="405" y="88"/>
      <point x="470" y="-5"/>
    </contour>
    <contour>
      <point x="570" y="57" type="curve" smooth="yes"/>
      <point x="510" y="57"/>
      <point x="470" y="117"/>
      <point x="470" y="195" type="curve" smooth="yes"/>
      <point x="470" y="273"/>
      <point x="510" y="333"/>
      <point x="570" y="333" type="curve" smooth="yes"/>
      <point x="630" y="333"/>
      <point x="670" y="273"/>
      <point x="670" y="195" type="curve" smooth="yes"/>
      <point x="670" y="117"/>
      <point x="630" y="57"/>
    </contour>
    <contour>
      <point x="920" y="-5" type="curve" smooth="yes"/>
      <point x="1020" y="-5"/>
      <point x="1085" y="88"/>
      <point x="1085" y="195" type="curve" smooth="yes"/>
      <point x="1085" y="302"/>
      <point x="1020" y="395"/>
      <point x="920" y="395" type="curve" smooth="yes"/>
      <point x="820" y="395"/>
      <point x="755" y="302"/>
      <point x="755" y="195" type="curve" smooth="yes"/>
      <point x="755" y="88"/>
      <point x="820" y="-5"/>
    </contour>
    <contour>
      <point x="920" y="57" type="curve" smooth="yes"/>
      <point x="860" y="57"/>
      <point x="820" y="117"/>
      <point x="820" y="195" type="curve" smooth="yes"/>
      <point x="820" y="273"/>
      <point x="860" y="333"/>
      <point x="920" y="333" type="curve" smooth="yes"/>
      <point x="980" y="333"/>
      <point x="1020" y="273"/>
      <point x="1020" y="195" type="curve" smooth="yes"/>
      <point x="1020" y="117"/>
      <point x="980" y="57"/>
    </contour>
  </outline>
</glyph>
<glyph name="guilsinglleft" format="2">
  <advance width="370"/>
  <unicode hex="2039"/>
  <outline>
    <contour>
      <point x="45" y="270" type="line"/>
      <point x="295" y="70" type="line"/>
      <point x="335" y="110" type="line"/>
      <point x="165" y="300" type="line"/>
      <point x="335" y="480" type="line"/>
      <point x="295" y="520" type="line"/>
      <point x="45" y="320" type="line"/>
    </contour>
  </outline>
</glyph>
<glyph name="guilsinglright" format="2">
  <advance width="370"/>
  <unicode hex="203A"/>
  <outline>
    <contour>
      <point x="35" y="110" type="line"/>
      <point x="75" y="70" type="line"/>
      <point x="325" y="270" type="line"/>
      <point x="325" y="320" type="line"/>
      <point x="75" y="520" type="line"/>
      <point x="35" y="480" type="line"/>
      <point x="205" y="300" type="line"/>
    </contour>
  </outline>
</glyph>
<glyph name="fraction" format="2">
  <advance width="570"/>
  <unicode hex="2044"/>
  <outline>
    <contour>
      <point x="45" y="100" type="line"/>
      <point x="105" y="100" type="line"/>
      <point x="525" y="670" type="line"/>
      <point x="465" y="670" type="line"/>
    </contour>
  </outline>
</glyph>
<glyph name="Euro" format="2">
  <advance width="620"/>
  <unicode hex="20AC"/>
  <outline>
    <contour>
      <point x="10" y="282" type="line"/>
      <point x="54" y="282" type="line"/>
      <point x="78" y="88"/>
      <point x="197" y="-10"/>
      <point x="342" y="-10" type="curve" smooth="yes"/>
      <point x="505" y="-10"/>
      <point x="577" y="106"/>
      <point x="601" y="163" type="curve"/>
      <point x="489" y="230" type="line"/>
      <point x="468" y="190"/>
      <point x="428" y="115"/>
      <point x="342" y="115" type="curve" smooth="yes"/>
      <point x="271" y="115"/>
      <point x="210" y="174"/>
      <point x="190" y="282" type="curve"/>
      <point x="348" y="282" type="line"/>
      <point x="357" y="345" type="line"/>
      <point x="184" y="345" type="line"/>
      <point x="184" y="374" type="line"/>
      <point x="362" y="374" type="line"/>
      <point x="362" y="437" type="line"/>
      <point x="189" y="437" type="line"/>
      <point x="209" y="546"/>
      <point x="271" y="605"/>
      <point x="342" y="605" type="curve" smooth="yes"/>
      <point x="428" y="605"/>
      <point x="470" y="528"/>
      <point x="489" y="490" type="curve"/>
      <point x="601" y="557" type="line"/>
      <point x="577" y="614"/>
      <point x="505" y="730"/>
      <point x="342" y="730" type="curve" smooth="yes"/>
      <point x="197" y="730"/>
      <point x="78" y="631"/>
      <point x="54" y="437" type="curve"/>
      <point x="19" y="437" type="line"/>
      <point x="10" y="374" type="line"/>
      <point x="49" y="374" type="line"/>
      <point x="49" y="345" type="line"/>
      <point x="10" y="345" type="line"/>
    </contour>
  </outline>
</glyph>
<glyph name="radical" format="2">
  <advance width="680"/>
  <unicode hex="221A"/>
  <outline>
    <contour>
      <point x="85" y="0" type="line"/>
      <point x="175" y="0" type="line"/>
      <point x="295" y="680" type="line"/>
      <point x="655" y="680" type="line"/>
      <point x="655" y="750" type="line"/>
      <point x="215" y="750" type="line"/>
      <point x="105" y="120" type="line"/>
      <point x="45" y="230" type="line"/>
      <point x="5" y="150" type="line"/>
    </contour>
  </outline>
</glyph>
<glyph name="infinity" format="2">
  <advance width="690"/>
  <unicode hex="221E"/>
  <outline>
    <contour>
      <point x="395" y="395" type="curve" smooth="yes"/>
      <point x="395" y="436"/>
      <point x="429" y="470"/>
      <point x="470" y="470" type="curve" smooth="yes"/>
      <point x="511" y="470"/>
      <point x="545" y="436"/>
      <point x="545" y="395" type="curve" smooth="yes"/>
      <point x="545" y="354"/>
      <point x="511" y="320"/>
      <point x="470" y="320" type="curve" smooth="yes"/>
      <point x="429" y="320"/>
      <point x="395" y="354"/>
    </contour>
    <contour>
      <point x="345" y="280" type="curve"/>
      <point x="370" y="248"/>
      <point x="405" y="220"/>
      <point x="470" y="220" type="curve" smooth="yes"/>
      <point x="575" y="220"/>
      <point x="645" y="290"/>
      <point x="645" y="395" type="curve" smooth="yes"/>
      <point x="645" y="500"/>
      <point x="575" y="570"/>
      <point x="470" y="570" type="curve" smooth="yes"/>
      <point x="405" y="570"/>
      <point x="377" y="542"/>
      <point x="345" y="510" type="curve"/>
      <point x="320" y="542"/>
      <point x="275" y="570"/>
      <point x="220" y="570" type="curve" smooth="yes"/>
      <point x="115" y="570"/>
      <point x="45" y="500"/>
      <point x="45" y="395" type="curve" smooth="yes"/>
      <point x="45" y="290"/>
      <point x="115" y="220"/>
      <point x="220" y="220" type="curve" smooth="yes"/>
      <point x="275" y="220"/>
      <point x="313" y="248"/>
    </contour>
    <contour>
      <point x="145" y="395" type="curve" smooth="yes"/>
      <point x="145" y="436"/>
      <point x="179" y="470"/>
      <point x="220" y="470" type="curve" smooth="yes"/>
      <point x="261" y="470"/>
      <point x="295" y="436"/>
      <point x="295" y="395" type="curve" smooth="yes"/>
      <point x="295" y="354"/>
      <point x="261" y="320"/>
      <point x="220" y="320" type="curve" smooth="yes"/>
      <point x="179" y="320"/>
      <point x="145" y="354"/>
    </contour>
  </outline>
</glyph>
<glyph name="approxequal" format="2">
  <advance width="450"/>
  <unicode hex="2248"/>
  <outline>
    <contour>
      <point x="55" y="180" type="line"/>
      <point x="395" y="180" type="line"/>
      <point x="395" y="270" type="line"/>
      <point x="55" y="270" type="line"/>
    </contour>
    <contour>
      <point x="425" y="380" type="curve"/>
      <point x="375" y="440" type="line"/>
      <point x="365" y="420"/>
      <point x="345" y="380"/>
      <point x="305" y="380" type="curve" smooth="yes"/>
      <point x="265" y="380"/>
      <point x="225" y="450"/>
      <point x="165" y="450" type="curve" smooth="yes"/>
      <point x="105" y="450"/>
      <point x="55" y="390"/>
      <point x="35" y="360" type="curve"/>
      <point x="35" y="360" type="line"/>
      <point x="85" y="300" type="line"/>
      <point x="85" y="300"/>
      <point x="105" y="370"/>
      <point x="165" y="370" type="curve" smooth="yes"/>
      <point x="225" y="370"/>
      <point x="245" y="300"/>
      <point x="305" y="300" type="curve" smooth="yes"/>
      <point x="365" y="300"/>
      <point x="405" y="350"/>
    </contour>
  </outline>
</glyph>
<glyph name="notequal" format="2">
  <advance width="450"/>
  <unicode hex="2260"/>
  <outline>
    <contour>
      <point x="105" y="100" type="line"/>
      <point x="185" y="100" type="line"/>
      <point x="215" y="180" type="line"/>
      <point x="395" y="180" type="line"/>
      <point x="395" y="270" type="line"/>
      <point x="245" y="270" type="line"/>
      <point x="275" y="350" type="line"/>
      <point x="395" y="350" type="line"/>
      <point x="395" y="440" type="line"/>
      <point x="305" y="440" type="line"/>
      <point x="335" y="520" type="line"/>
      <point x="255" y="520" type="line"/>
      <point x="225" y="440" type="line"/>
      <point x="55" y="440" type="line"/>
      <point x="55" y="350" type="line"/>
      <point x="195" y="350" type="line"/>
      <point x="165" y="270" type="line"/>
      <point x="55" y="270" type="line"/>
      <point x="55" y="180" type="line"/>
      <point x="135" y="180" type="line"/>
    </contour>
  </outline>
</glyph>
<glyph name="lessequal" format="2">
  <advance width="480"/>
  <unicode hex="2264"/>
  <outline>
    <contour>
      <point x="35" y="300" type="line"/>
      <point x="415" y="100" type="line"/>
      <point x="445" y="200" type="line"/>
      <point x="165" y="350" type="line"/>
      <point x="445" y="500" type="line"/>
      <point x="425" y="600" type="line"/>
      <point x="35" y="400" type="line"/>
    </contour>
    <contour>
      <point x="35" y="140" type="line"/>
      <point x="405" y="-60" type="line"/>
      <point x="425" y="30" type="line"/>
      <point x="55" y="230" type="line"/>
    </contour>
  </outline>
</glyph>
<glyph name="greaterequal" format="2">
  <advance width="480"/>
  <unicode hex="2265"/>
  <outline>
    <contour>
      <point x="65" y="100" type="line"/>
      <point x="445" y="300" type="line"/>
      <point x="445" y="400" type="line"/>
      <point x="55" y="600" type="line"/>
      <point x="35" y="500" type="line"/>
      <point x="315" y="350" type="line"/>
      <point x="35" y="200" type="line"/>
    </contour>
    <contour>
      <point x="75" y="-60" type="line"/>
      <point x="445" y="140" type="line"/>
      <point x="425" y="230" type="line"/>
      <point x="55" y="30" type="line"/>
    </contour>
  </outline>
</glyph>
